<svg xmlns="http://www.w3.org/2000/svg" data-name="Layer 2" viewBox="0 0 928.13 474.99"><g data-name="Layer 1"><g style="opacity:.2"><path d="M516.06 473.26c.54.19 1.05.36 1.54.47.47.07 1.07.1 1.77.07h.19c2.05.05 4.23-.29 6.28-.86 2.12-.5 4.18-1.25 5.69-2.29 0 0 .02-.02.03-.02.07-.05.16-.09.24-.13.78-.46 1.32-1.07 1.59-1.77.05-.07.1-.16.14-.24v-.25c.14-.65.08-1.35-.19-2.09 0-.04-.02-.07-.03-.11-.33-1.8-.97-3.67-1.46-5.49-.02-.09-.05-.18-.07-.27-.13-.6-.25-1.19-.35-1.76-.2-.97-.25-1.97-.21-2.98 0-.16.02-.32.03-.48 0-.11.02-.21.03-.32.04-.35.09-.71.14-1.07.03-.2.07-.41.11-.61.02-.05.02-.1.03-.16.15-.66.34-1.31.43-1.88v-.03c.09-.46.13-.91-.03-1.26l-.07-.15s-.07-.04-.1-.07l-.03-.03c-.42-.5-1.03-.74-1.64-.96-.04-.02-.09-.02-.12-.05-.06-.02-.11-.04-.17-.06-.92-.38-1.91-.7-2.85-1.1-.58-.27-1.14-.57-1.67-.96-1.44-1-2.92-3.11-4.18-3.19-.03 0-.07 0-.1.02h-.04c-.2 0-.4 0-.61.07-.17.08-.37.16-.58.26-.03 0-.07.02-.1.03-1.21.43-2.62 1.14-4 1.86-.04.02-.09.05-.14.07-1.3.64-2.6 1.32-3.64 1.98-.02 0-.04.02-.06.03-.02.02-.05.02-.07.04-.15.07-.3.15-.43.22-.11.08-.21.19-.29.28-.06.05-.12.09-.17.13-.06.09-.08.19-.13.28-.02.04-.06.07-.08.11v.05c-.34.61-.46 1.36-.47 2.15v.7c0 .93.07 1.89.08 2.8 0 .23-.02.46-.05.67 0 .12 0 .24.02.36 0 .07 0 .15-.02.21.02.42 0 .81 0 1.2v.24c0 .03 0 .07-.02.11-.16 1.98-.71 3.81-1.4 5.66-.05.15-.11.29-.16.44-.2.5-.4 1.01-.61 1.54l-.21.51c-.02.07-.05.15-.07.21-.06.14-.11.28-.15.41 0 .02-.02.06-.02.08v.02c-.02.04-.03.08-.04.14-.29.89-.42 1.8.36 2.46.14.11.28.21.45.34.15.1.31.22.47.33.03.02.06.05.09.07.15.11.28.2.44.32 1.89 1.29 4.42 2.8 6.67 3.66.03 0 .06.02.08.03ZM301.46 441.84c35.87 17.74 105.3 23.2 163.63 22.57-2.93-5.92-3.33-12.34-1.31-18.15-5.46-.69-9.59-4.89-11.87-7.2l-.12-.13c-6.91-7.53-7.77-19.56-2.02-28.06.08-.14.18-.28.28-.42-1.96 2.39-4.46 4.61-7.44 6.55a6.47 6.47 0 0 1-3.58 1.07h-.44c-2.14 1.83-4.35 3.15-6.11 4.11l-.14.07c-2.6 1.41-5.66 2.84-8.55 2.84-2.3 0-4.37-.89-5.82-2.5a7.46 7.46 0 0 1-1.62-2.94c-1.17.25-2.39.38-3.65.38-3.2 0-6.1-.79-8.92-1.55-2.42-.66-4.72-1.28-6.88-1.28-.26 0-.53 0-.79.02a6.512 6.512 0 0 1-5.87-2.82 6.55 6.55 0 0 1-.52-6.5c.81-1.71 1.22-4 1.65-6.41.75-4.15 1.65-9.14 5.03-13.36a7 7 0 0 1-.47-.45l-.07-.07c-2.08-2.24-2.59-5.45-1.32-8.38 1.81-4.18 8.35-8.53 13.99-10.84.48-1.15 1.36-2.42 2.96-3.48 3.8-2.52 8.22-3.83 12.81-3.83 3.55 0 6.96.82 9.93 2.32-.26-.83-.52-1.63-.77-2.39-15.13-16.52-27.07-35.44-38.63-53.76-20.16-31.93-37.76-59.81-66.75-68.12-.22 1.78-.4 3.37-.42 4.14-.19 5.84-.08 10.41.34 13.99.06.37.41 1.79.61 2.64.6 2.46.96 3.93.74 5.39 7.21-3.9 16.44-4.12 23.7-.29 7.18 3.78 11.15 10.85 11.08 19.57 4.06-.08 7.87.74 11.2 2.5 9.33 4.93 16.05 18.76 10.62 32.53-1.81 4.57-5.15 8.9-10.1 11.5.89 1.69 1.25 3.53 1.52 4.87.07.35.13.69.2.98l.05.2.04.2c1.13 6.75-.61 13.62-4.64 18.39l-.11.14a23.5 23.5 0 0 1-7.35 5.79c.18.21.35.44.51.68l.14.21.12.22c4.18 7.82 3.16 18.52-2.38 24.88l-.1.11c-4.9 5.75-12.77 8.86-20.59 8.16-2.84-.16-5.57-.92-8.14-2.27-7.95-4.19-12.46-12.84-12.1-21.69-1.32.29-2.7.28-4.09-.08l-.11-.03c-1.72-.33-3.54-1.01-5.43-2.01-.51-.27-1.02-.56-1.52-.86-1.32-.74-2.53-1.54-3.63-2.41-2.35 3.9-4.09 8.03-2.89 13.08.52 2.19 2.97 3.81 3.04 5.71.07 2.46-3.56 6.25-4.12 9.03-1.01 4.94.11 9.05-1.91 14.57-5.4 14.6-26.21 20.33-.92 32.84ZM568.27 407.58c-4.63.51-9.23.87-13.75 1.09 4.62 4.08 7.55 9.65 7.98 15.32l.02.17c.26 3.32-.19 6.56-1.2 9.59.29.02.58.07.87.13l.26.05.25.07c8.25 2.57 14.96 10.38 16.15 18.56 13.91-3.11 27.3-6.98 35.34-11.49-1.56-.26-3.16-.59-4.72-1.01-1.09 1.05-2.99 2.28-5.96 2.28h-.28c-12.06-.31-23.27-7.35-28.56-17.93-2.79-5.57-3.64-11.51-2.6-17.29-1.25.16-2.52.31-3.79.46Z"/><path d="M635.36 431.99c-.11-.87-9.89-10.37-9.02-14.62 4.6.44 8.1 2.23 13.06 1.73 12.86-1.32 19.03-14.8 29.53-20.99-14.73-9.14-16.63-29.98-39.02-22.35.94-6.32 5.57-9.34 9.05-13.4 3.47-4.06-7.66-5.25-9.88-5.51-6.43-.76-12.67-.61-18.66 2.04l.87-4.67c-5.09-.16-9.77.42-13.86 1.69-13.69 4.23-20.67 16.16-13.64 34.31l-3.58.88c-10.96 1.16-22 1.71-33.02 1.31.68 3.15.74 6.54-.07 9.93 6.82-.07 13.65-.51 20.43-1.27 1.41-.16 2.8-.32 4.21-.51 3.61-.47 7.22-1.02 10.8-1.66-12.01 16.89 2.67 36.43 20.83 36.89 3.98.1.19-4.9 2.12-4.69 1.75 2.08 8.73 3.69 15.49 4.2 7.49.56 14.73-.25 14.36-3.32ZM450.05 410.45c.44-.53.86-1.07 1.24-1.62-.49.58-.91 1.13-1.24 1.62M519.54 415.35l-.11-.2c-6.64-11.54-21.71-11.12-29.92-1.47-9.76 12.59 1.23 32.35 17.61 29.72 14.31-1.85 19.34-16.37 12.42-28.06ZM573.65 453.67c-.74-6.42-6.13-12.63-12.53-14.62-1.9-.39-2.62 1.71-3.76 2.88-2.03 2.65-4.9 4.55-8.1 5.88-2.44 1.05-4.92 1.9-7.61 2.25-1.23.2-2.71.37-3.64 1.2-1.99 2.25-2 5.58-1.22 8.65.28 1.09.65 2.14 1.07 3.11 4.91 11.87 20.05 15.6 28.48 8.07 4.87-3.98 7.83-10.36 7.38-16.49l-.02-.24c-.02-.23-.03-.46-.07-.69ZM504.61 449.98c-.38-.56-1.12-.76-1.8-.97-4.54-1.29-9.23-1.68-12.78-4.87-2.27-1.86-3.59-3.78-5.4-5.79-.91-.99-1.97-1.95-3.37-1.97-3.52.3-6.96 3.3-9.34 6.01-5.56 6.79-4.96 15.03-1.26 21.21.15.24.3.48.46.72 7.84 11.78 25.2 9.52 31.56-1.22 2.08-3.49 2.98-7.88 2.03-12.97z"/><path d="M537.8 408.75c1.86-2.04 3.11-4.22 3.83-6.42 1.13-3.41 1.03-6.91.03-10.19-.73-2.44-1.96-4.75-3.56-6.82-6.41-8.38-18.7-12.85-28.15-5.25-1.71 1.37-3.32 3.15-4.79 5.36-.07.11-.15.22-.22.34l-.12.2c-1.22 2.32-2.48 7.01-2.71 10.75-.11 1.9.04 3.55.6 4.52 1.24 1.46 3.6 1.15 5.36 1.58 3.39.48 5.92 2.1 8.73 3.82 0 0 .02 0 .02.02 1.37.87 2.71 1.89 3.85 3.08 4.02 4.56 4.63 7.64 10.05 4.49 2.96-1.66 5.29-3.51 7.06-5.48ZM549.47 411.38c-1.14-.69-2.72-1.97-4.23-2.48-.79-.28-1.56-.34-2.25-.02-.31.16-.61.39-.88.74-2.44 3.26-4.72 6.25-8.82 7.67-1.99 1.13-5.95 1.32-5.6 4.32.25 3.03.67 7.21-.14 10.48-1.99 6.66-5.31 6.47 2.54 10.72 13.12 7.49 28.27-4.13 27.14-18.22l-.02-.21c-.38-4.94-3.42-9.87-7.76-13.01ZM501.41 384.15c.11-.33.18-.68.21-1.04l-.04-.2c-5.35-6.24-11.63-7.72-17.23-6.33-4.54 1.13-8.64 4.14-11.45 8.04-2.42 3.34-3.89 7.33-3.89 11.34 0 5.42 2.68 10.86 9.33 14.8 6.05 4.08 7.21-1.81 11.26-4.94 1.82-1.55 4.85-2.57 7.28-3.83.04-.02.07-.03.11-.05 1.65-.73 1.49-2.48 1.33-4.05-.08-.78-.15-1.57-.18-2.35-.1-2.1.05-4.18.85-6.22.51-1.94 1.88-3.45 2.41-5.16ZM480.69 418.34l-.07-.17c-.6-.94-1.96-1.13-2.93-1.6-5.13-1.79-7.33-6.36-11.19-9.95-2.84-3.19-10.74 4.45-12.28 7.11-4.5 6.52-3.85 15.84 1.45 21.62 2.4 2.44 5.6 5.48 9.2 5.7.7-.11 1.26-.6 1.73-1.11 1.54-1.76 3.37-3.72 5.26-5.12 2.14-1.73 5.47-2.7 8.02-4.39 1.36-1.11.52-3.6.46-5.55-.5-2.3.58-4.47.34-6.55ZM316.05 324.86c1.18 2.52 3.02 4.81 5.6 6.64 11.11 8.45 24.46 1.86 27.64-10.89l.06-.22c3.27-12.47-7.4-22.43-19.63-21.35-5.44.73-9.69 3.87-12.32 8.04-3.29 5.23-4.03 12.07-1.35 17.77ZM343.65 390.86c6.06.56 12.44-1.82 16.3-6.35l.16-.18c4.23-4.87 4.9-13.19 1.72-19.12-1.05-1.56-2.97-.6-4.54-.57-3.2.44-6.48-.2-9.59-1.45-2.39-.93-4.68-2.03-6.77-3.62-.98-.7-2.12-1.59-3.33-1.65-3.92.26-6.7 4.38-8.1 8.02-4.68 11.52 3.21 24.39 14.15 24.93ZM315.31 334.62s.06-.09.09-.13l.04-.16c.04-.25.02-.49-.06-.74v-.02c-.11-.38-.33-.78-.52-1.14-2.26-3.98-5.22-7.44-5.51-12.05-.29-2.82.1-5.04.22-7.67.04-1.3-.03-2.68-.99-3.64-2.62-2.19-7.04-2.46-10.52-2.21-8.45.9-13.64 6.98-15.29 13.76-4.36 18.2 20.9 31.02 32.53 13.99Z"/><path d="m359.35 290.28-.23.07c-3.64 1.15-11.02 5.96-11.83 9.09-.14 1.86 1.7 3.24 2.62 4.73 2.02 2.65 2.66 5.48 3.42 8.57.35 1.54.58 3.16.56 4.77-.33 5.88-2 8.42 3.88 9.92 33.52 9.16 32.41-44.04 1.58-37.15M368.99 352.61l.13-.16c3.1-3.65 4.36-9.13 3.5-14.24-.56-2.24-.82-6.61-3.87-6.23-3.91.59-7.51 1.1-11.3-.71-2.13-.56-5-3.12-6.79-.82-1.9 2.26-4.44 5.42-7.23 7.13-5.89 3.24-8.07.84-5.53 9.12 3.94 14.08 22.29 16.37 31.1 5.89ZM324.01 289.42c1.4 6.92 6.2 3.64 11.12 4.25 2.35.17 5.18 1.55 7.74 2.35 1.63.63 2.71-.69 3.67-1.89 1.77-2.2 3.63-4.27 6.29-5.45 1.99-1.19 4.42-1.11 6.02-2.49l.11-.16c1.9-27.34-41.97-23.2-34.95 3.4ZM318.65 278.52c.13-2.53-3.8-3.55-7.53-3.78-2.36-.14-4.65.03-5.77.33-3.72.71-7.04 2.74-9.46 5.52-2.5 2.86-4.09 6.52-4.22 10.37 0 3.32.13 7.58 2.47 10.19.56.4 1.27.44 1.95.42 2.26-.17 4.85-.28 7.12.04 2.65.26 5.61 1.86 8.52 2.43 1.69.16 2.79-2.12 4.09-3.51.6-.95 1.43-1.61 2.28-2.22.87-.65 1.76-1.25 2.4-2.06l.07-.17c.23-1.05-.59-2.11-.93-3.09-.44-.9-.74-1.79-.94-2.69-.83-3.82.18-7.65 0-11.78ZM315 342.51c-.09.08-.17.17-.26.25-.06.05-.11.11-.17.16-.02.02-.06.04-.08.07-1.57 1.35-3.33 2.27-5.22 3.14-.48.21-.96.42-1.47.65-.16.07-.33.14-.49.21-.07.02-.13.07-.2.09-.13.07-.26.12-.38.19-.02 0-.04.02-.07.04h-.02c-.04.02-.08.03-.13.07-.8.42-1.51.95-1.42 1.95.02.17.05.33.09.53.02.17.07.37.09.55 0 .03.02.07.02.11.02.17.05.33.09.51.42 2.18 1.14 4.94 2.1 7.06.02.02.02.06.04.08.24.49.48.96.73 1.36.29.37.68.8 1.18 1.26.04.05.09.09.13.13.46.47.95.92 1.47 1.36 1.05.87 2.23 1.65 3.44 2.32 1.8 1.1 3.74 1.99 5.48 2.29h.03c.09.02.17.05.26.07.85.21 1.63.16 2.3-.14.09-.02.17-.04.25-.07l.13-.12s.02-.03.04-.04c.53-.35.98-.87 1.29-1.57.02-.04.04-.07.06-.11 1.05-1.54 1.9-3.36 2.86-5.02.31-.5.63-.99.96-1.45.52-.8 1.16-1.52 1.88-2.19.11-.11.23-.2.34-.31.08-.07.16-.13.25-.2.27-.22.54-.43.83-.65.16-.12.33-.24.49-.34.05-.03.09-.06.13-.08.56-.36 1.13-.68 1.58-1.01l.02-.02c.38-.25.71-.53.83-.88l.05-.16s-.02-.07-.02-.11v-.06c.05-.63-.2-1.2-.47-1.77l-.06-.12c-.02-.05-.05-.1-.07-.16-.38-.89-.83-1.78-1.22-2.71-.21-.57-.39-1.17-.5-1.79-.31-1.66.11-4.13-.72-5.04-.02 0-.05-.04-.07-.05 0 0-.02-.02-.03-.02-.13-.14-.29-.26-.48-.37-.16-.07-.36-.14-.57-.21-.02-.02-.06-.03-.08-.05-1.14-.51-2.59-1.01-4.02-1.43-.05-.02-.1-.03-.15-.05-1.33-.44-2.7-.86-3.86-1.11-.02 0-.04-.02-.07-.02h-.07c-.16-.06-.31-.11-.46-.16-.12 0-.27-.02-.38 0-.07 0-.14-.02-.2-.03-.09.02-.18.07-.28.11-.04 0-.09 0-.13.02-.02.02-.02.02-.04.03-.65.2-1.23.63-1.79 1.16-.11.11-.22.22-.33.32-.05.06-.1.11-.15.16-.63.65-1.23 1.36-1.85 1.99-.16.16-.33.31-.49.43-.08.09-.16.17-.24.25-.05.05-.1.1-.16.14-.18.2-.37.39-.56.56Z"/><path d="M267.26 263.06c7.96 1.8 11.89 10.5 20.78 3.95.52 2.86-1.11 4.84-2.07 7.1-.96 2.24 4.21 1.14 5.24.93 1.87-.38 3.66-.9 5.29-1.73.02-.01.03-.02.04-.02.59-.3 1.16-.64 1.71-1.03.35-.2.69-.38 1.06-.54 1.56-.74 3.21-1.3 4.92-1.65.73-.16 1.69-.32 2.79-.41 4.22-3.84 4.81-9.44-.45-15.59l6.38-3.89c-.04 2.4.62 4.97 1.09 7.31.59 2.94 1.19 5.96 2.21 8.79.15.42.34 1.19.7 1.5.18.14.13.13.4.02.42-.17.83-.55 1.21-.79.63-.42 1.27-.86 1.93-1.25l.6-.36c.23-.13 1.78-.7 1.78-1.04.12-.29-1.2-5-1.36-6.35-.09-.88-.18-1.77-.24-2.7-.3-4.02-.25-8.38-.13-12.23.07-2.17.85-7.46 1.38-11.85 0-.02.01-.05.01-.07.17.03.35.06.51.1.01 0 .03 0 .04.01 54.67 9.84 72.7 79.59 116.18 126.36 2.46 7.55 5.04 15.52 4.48 16.82-.95 2.15-4.06 5.1-5.78 6.86.74-12.66-13.53-17.1-22.82-10.95-1.99 1.32 1.58 2.38.55 2.93-3.3-.77-17.37 7.35-15.03 9.87.36.38 8.4 1.49 9.43 3.79-2.42 1.38-4.76 1.72-7.02 3.67-5.91 5.04-4.35 13.54-7.44 20.07 10.4-.76 18.43 8.41 26.87-2.89 1.68 3.3.44 6.33.11 9.43-.34 3.11 5.55-.16 6.73-.79 3.43-1.86 6.46-4.07 8.52-7.4l1.16 2.5c11.13-7.29 13.83-18.47 1.29-26.42l6.35-7.14c.9 3.17 9.87 19.95 11.8 20.19.44-2.01 5.54-5.93 5.6-6.55.03-.4-3.33-5.66-4.02-7.24-1.48-3.4-2.83-7.26-3.99-11.07 3.88 3.08 7.96 5.97 12.26 8.63 2.57-3.72 6.08-6.8 10.12-8.77-10.1-6.23-19.24-13.93-27.28-22.68-2.69-2.93-5.31-6.04-7.87-9.33-.56-.7-1.1-1.44-1.65-2.17-2.73-3.48-5.33-7.07-7.85-10.72-8.34-12.03-15.74-24.68-23.27-37.24 1.46-2.06 4.52-4.43 6.3-5.91-2.13 13.43 12.19 20.06 22.5 14.71 2.21-1.15-1.39-2.75-.25-3.22 3.34 1.28 18.82-5.56 16.66-8.56-.33-.45-8.57-2.7-9.38-5.29 2.66-1.15 5.12-1.23 7.69-3.02 6.66-4.6 5.96-13.88 9.85-20.46-10.85-.56-18.2-11.43-28.18-.46-1.41-3.76.22-6.82.9-10.1s-5.79-.56-7.08-.03c-3.76 1.54-7.14 3.49-9.63 6.77l-.94-2.83c-12.35 6.34-16.34 17.92-4.2 28.1l-6.71 6.18c-4.74-7.84-9.59-15.62-14.81-23.15-6.71-9.66-14.28-19.01-23.02-26.99-6.73-6.14-14.36-11.31-22.6-15.22-.62-.3-1.24-.58-1.86-.86-4.41-1.97-8.96-3.3-13.54-4.81-6.07-2.01-12.22-2.48-15.72-7.28-1.84-2.31-2.96-5.35-2.96-8.67 0-6.37 2.92-9.64 5.97-11.33l1.93-26.59c-4.93 3.92-10.35 7.7-14.68 12.4-.01.01-.02.01-.02.01a36 36 0 0 0-2.94 3.58c-14.79 20.53-8.61 36.6.28 45.39 2.42 2.41 5.04 4.27 7.5 5.53.11 6.93.85 16.96.01 17.95-1.2 1.39-4.21 2.89-5.89 3.8 3.44-9.3-6.22-15.88-14.6-13.39-1.79.53.64 2.13-.25 2.32-2.3-1.34-14.69 1.54-13.51 3.96.17.37 5.96 3.03 6.2 4.98-2.13.48-3.96.22-6.1 1.16-5.57 2.42-6.35 9.14-10.14 13.33Z"/><path d="M336.36 22.22c-.45 2.88.87 4.68.71 7.1-2.73 41.32-11.49 166.36-11.76 170.13-.33 4.54 2.65 8.68 7.07 9.78 15.64 3.89 30.02 11.59 42.2 22.72 8.24 7.53 16.07 16.72 23.99 28.09.9 1.31 1.79 2.61 2.67 3.92 1.41-6.85 6.68-13.02 14.7-17.13a6.55 6.55 0 0 1 4.27-.59c2.42-1.68 4.86-2.8 6.8-3.6l.08-.03c2.28-.94 5.25-2.01 7.97-2.01 3.55 0 5.53 1.78 6.41 2.86.95 1.16 1.5 2.56 1.65 4.04.6-.07 1.22-.1 1.85-.1 4.23 0 8 1.58 11.32 2.97 2.75 1.15 5.35 2.24 7.88 2.37 3.03.16 5.64 2.37 6.14 5.59.23 1.54-.18 3.09-.95 4.44-1 1.76-1.65 4.1-2.35 6.56-1.24 4.42-2.74 9.76-6.95 13.83.32.3.62.64.91 1.04 1.72 2.38 1.92 5.43.53 8.15-2.24 4.37-9.81 8.2-15.8 9.93-.59 1.13-1.63 2.38-3.41 3.31-3.27 1.69-6.97 2.6-10.7 2.6-1.1 0-2.19-.08-3.25-.22 3.47 5.61 7.05 11.17 10.77 16.54 2.6 3.77 5.08 7.16 7.63 10.42.02.04.49.66.49.66.39.5.77 1.02 1.16 1.52 2.46 3.14 4.99 6.14 7.54 8.93 9.38 10.21 19.95 18.51 31.47 24.75 6.14-.23 12.06 2.28 16.91 7.28 2.93-3.01 6.34-5.15 10.05-6.29 9.86-2.97 23.77 1.59 30.33 13.96 3.16.16 6.39.24 9.66.24 6.74 0 13.65-.33 21.01-1-2.48-11.32.48-19.11 3.77-23.92 3.84-5.59 9.73-9.58 17.13-11.67-.04-1.43.08-2.9.4-4.44 2.88-13.88 42.4-37.94 52.32-54.29 11.69-19.26 9.08-51.42 7.88-73.41-1.58-29.41-4.72-59.61-9.09-88.72-1.78-11.9-5.26-38.88-9.35-48.86-1.95-4.69-4.88-7.38-9.52-9.17-14.26-5.61-44-.63-54.35-10.51-14.89-14.22 8.11-37.64-16.04-48.83C531.6-1.26 456.93-.57 425.83.58c-17.74.65-71.92 2.84-84.31 13.5-2.47 2.13-4.65 4.76-5.15 8.14Zm249.95 80.5c7.26-.79 16.31 2.42 20.51 8.59 4.9 7.26 8.31 39.55 9.4 49.93 2.06 19.74 3.85 42.81 4.44 62.6.64 21.75 1.82 39.17-16.51 53.88-22.6 18.18-18.57-13.55-19.8-27.46-2.8-31.48-5.15-63.03-7.7-94.5-1.01-12.56-4.21-27.29-4.27-39.7-.04-7.15 7.33-12.63 13.94-13.32Zm-231.49 20.47c.64-1.28-.04-2.92 1.18-4.74 1.23-.96 2.49-1.92 3.73-2.86 18.04-13.77 36.35-28.02 37.07-29.58 1.37-2.98-.53-8.5 3.62-12.79s9.98-5.4 12.15-8.7c2.15-3.29 6.31-12.97 9.03-13.55 2.43-.49 7.35 6.82 10.91 11.02.44.51.85.97 1.22 1.38 3.39 3.52 6.58-4.36 7.57-10.05.06-.31.11-.6.15-.9.79-5.69 6.86-15.22 7.14-19.03.26-3.82 1.35-8.34 4.39-7.74 3.03.6 8.27 12.88 11.57 15.04 3.3 2.15 3.12 4.44 7.84 2.87 4.72-1.58 5.29-4.23 6.39-3.38 1.08.86 25.68 21.44 28.83 25.51 3.16 4.05 7.89 12.85 10.36 15.72 2.48 2.86 5.12 3.43 5.99 7.34.47 2.12 2.65 4.37 5.31 6.45 2.06 1.65 4.41 3.2 6.49 4.5 4.08 5.52 11.82 10.09 11.82 13.68 0 2.81 3.85 54.42 5.89 81.25.1 1.41-1.93 1.7-2.23.34-4.05-17.92-10.59-45.38-13.5-49.38-4.38-6.01-35.49-26.76-38.22-29.49-2.73-2.72 1.08 2.73 0 6.57-1.1 3.82-4.91 7.1-2.73 10.37 2.18 3.26 9.28 6 6 10.91-3.27 4.92-10.91 12.01-14.19 15.3-3.28 3.27-7.64 6-10.37 10.36-2.73 4.37-6.56 5.46-12.01 7.1-5.46 1.64-16.93 1.64-21.85 1.64s-32.76 20.2-38.22 25.66c-5.45 5.46-6.55 7.65-7.09 17.47-.55 9.83-9.83-5.45-9.28-10.91.53-5.47-2.74-10.38.53-15.29 3.3-4.91 4.38-8.73 7.11-12.01s-18.57 0-21.85 3.28c-3.26 3.27-14.19 18.02-18.02 18.02-3.07 0-6.52-2.51-7.74-3.46-.28-.23-.44-.58-.41-.95.41-6.91 4.38-74.87 5.43-76.96Z"/></g><path d="M44.22 177.95H43.2c-.6-.68-1.34-1.32-2.23-1.91q-1.335-.885-3-1.53c-.76-.25-1.61-.49-2.55-.7s-2.08-.32-3.44-.32q-4.2 0-6.63 2.04c-1.62 1.36-2.42 3.02-2.42 4.97 0 1.78.57 3.36 1.72 4.71 1.15 1.36 3.16 3.02 6.05 4.97l5.22 3.57c4.5 3.23 8.05 6.9 10.64 11.02s3.89 8.77 3.89 13.96c0 7.73-2.8 14.04-8.41 18.92-5.61 4.89-13.72 7.33-24.34 7.33-2.89 0-5.84-.19-8.86-.57s-5.38-.78-7.07-1.21v-22.17h1.02c.85.85 1.68 1.57 2.49 2.17s1.63 1.15 2.48 1.66c1.1.59 2.4 1.08 3.89 1.47 1.49.38 3.25.57 5.29.57 3.31 0 5.95-.85 7.9-2.55s2.93-3.78 2.93-6.25c0-2.21-.74-4.22-2.23-6.05s-3.89-3.93-7.2-6.31l-5.23-3.57c-4.42-3.23-7.71-6.65-9.88-10.26s-3.25-7.67-3.25-12.17c0-7.39 2.76-13.32 8.28-17.78s13.3-6.69 23.32-6.69c1.95 0 3.61.09 4.97.25 1.36.17 2.5.25 3.44.25 1.27 0 2.68-.21 4.21-.64v22.81ZM83.09 174.89h-8.03q-11.475 0-14.4 4.08h-1.02v-23.83c1.44.34 3.16.6 5.16.76 2 .17 3.93.25 5.8.25h45.37c1.95 0 3.91-.08 5.86-.25s3.65-.42 5.1-.76v23.83h-1.02c-1.11-1.44-2.78-2.49-5.03-3.12-2.25-.64-5.37-.96-9.37-.96h-8.03v53.78q0 5.865.96 9.3c.64 2.29 1.59 3.99 2.87 5.1v1.02H79.27v-1.02c1.27-1.1 2.23-2.8 2.87-5.1q.96-3.435.96-9.3v-53.78ZM143.88 171.58c0-3.99-.38-7.12-1.15-9.37-.76-2.25-1.83-3.93-3.19-5.03v-1.02h52.12c1.95 0 3.91-.08 5.86-.25s3.65-.42 5.1-.76v23.83h-1.02c-1.96-2.72-6.75-4.08-14.4-4.08h-23.07v12.87h10.71c3.14 0 5.58-.23 7.33-.7 1.74-.47 3.04-1.12 3.89-1.98h1.02v22.68h-1.02c-.85-.85-2.15-1.51-3.89-1.98s-4.19-.7-7.33-.7h-10.71v20.26h23.7c3.99 0 7.14-.34 9.43-1.02q3.435-1.02 5.1-3.06h1.02v23.83c-1.53-.43-3.27-.7-5.22-.83-1.96-.13-3.91-.19-5.86-.19h-52.76v-1.02c1.36-1.1 2.42-2.8 3.19-5.1s1.15-5.39 1.15-9.3v-57.09ZM221.36 171.58c0-3.99-.34-7.12-1.02-9.37s-1.66-3.93-2.93-5.03v-1.02h28.16v1.02c-1.27 1.11-2.23 2.78-2.87 5.03s-.96 5.37-.96 9.37v57.09q0 5.865.96 9.3c.64 2.29 1.59 3.99 2.87 5.1v1.02h-28.16v-1.02c1.27-1.1 2.25-2.8 2.93-5.1q1.02-3.435 1.02-9.3zM331.72 228.67q0 5.865 1.02 9.3c.68 2.29 1.66 3.99 2.93 5.1v1.02h-28.16v-1.02c1.27-1.1 2.23-2.8 2.87-5.1q.96-3.435.96-9.3v-15.04l-27.02-22.56v37.59q0 5.865.96 9.3c.64 2.29 1.55 3.99 2.74 5.1v1.02h-28.04v-1.02c1.27-1.1 2.25-2.8 2.93-5.1q1.02-3.435 1.02-9.3v-56.07c0-4.08-.38-7.39-1.15-9.94s-1.87-4.38-3.31-5.48v-1.02h24.34v.76c-2.29 4.33-1.49 8.2 2.42 11.6l25.11 21.03v-17.97c0-3.99-.32-7.12-.96-9.37s-1.59-3.93-2.87-5.03v-1.02h28.16v1.02c-1.27 1.11-2.25 2.78-2.93 5.03s-1.02 5.37-1.02 9.37v57.09ZM394.93 177.95h-1.02c-.6-.68-1.34-1.32-2.23-1.91q-1.335-.885-3-1.53c-.76-.25-1.61-.49-2.55-.7s-2.08-.32-3.44-.32q-4.2 0-6.63 2.04c-1.62 1.36-2.42 3.02-2.42 4.97 0 1.78.57 3.36 1.72 4.71 1.15 1.36 3.16 3.02 6.05 4.97l5.22 3.57c4.5 3.23 8.05 6.9 10.64 11.02s3.89 8.77 3.89 13.96c0 7.73-2.8 14.04-8.41 18.92-5.61 4.89-13.72 7.33-24.34 7.33-2.89 0-5.84-.19-8.86-.57s-5.38-.78-7.07-1.21v-22.17h1.02c.85.85 1.68 1.57 2.49 2.17s1.63 1.15 2.48 1.66c1.1.59 2.4 1.08 3.89 1.47 1.49.38 3.25.57 5.29.57 3.31 0 5.95-.85 7.9-2.55s2.93-3.78 2.93-6.25c0-2.21-.74-4.22-2.23-6.05s-3.89-3.93-7.2-6.31l-5.23-3.57c-4.42-3.23-7.71-6.65-9.88-10.26s-3.25-7.67-3.25-12.17c0-7.39 2.76-13.32 8.28-17.78s13.3-6.69 23.32-6.69c1.95 0 3.61.09 4.97.25 1.36.17 2.5.25 3.44.25 1.27 0 2.68-.21 4.21-.64v22.81ZM456.42 163.99c2.08-3.1 4.93-5.54 8.54-7.33 3.61-1.78 7.71-2.68 12.3-2.68s8.79.91 12.36 2.74 6.39 4.33 8.47 7.52 3.12 6.82 3.12 10.9c0 3.23-.72 6.24-2.17 9.05-1.45 2.8-3.48 5.14-6.12 7.01 2.72 2.55 5.14 5.21 7.26 7.96 2.12 2.76 4.33 6.1 6.63 10l16.95-18.86h1.15v22.68l-10.2 9.81 7.26 13.89c1.1 1.78 2.17 3.19 3.19 4.21s1.95 1.74 2.8 2.17v1.02h-25.11v-1.02c1.7-1.1 1.95-2.97.76-5.61l-1.78-3.19c-3.4 3.82-7.39 6.75-11.98 8.79s-9.43 3.06-14.53 3.06c-6.12 0-11.47-1.25-16.06-3.76s-8.16-5.99-10.71-10.45-3.82-9.62-3.82-15.48 1.44-11.21 4.33-15.8 6.84-8.24 11.85-10.96c-2.29-1.53-4.14-3.65-5.54-6.37q-2.1-4.08-2.1-8.67c0-3.99 1.04-7.54 3.12-10.64Zm21.6 63.92c2.72 0 5.52-.79 8.41-2.36s5.18-3.55 6.88-5.93c-4.84-8.92-10.32-16.01-16.44-21.28-3.74 1.27-6.73 3.31-8.98 6.12-2.25 2.8-3.38 6.12-3.38 9.94s1.21 7.24 3.63 9.75 5.71 3.76 9.88 3.76m3.89-55.06c-.98-1.27-2.32-2-4.01-2.17-1.61-.17-3.06.25-4.33 1.27s-2 2.38-2.17 4.08c-.17 1.78.25 3.31 1.27 4.59s2.34 2 3.95 2.17c1.7.17 3.16-.25 4.4-1.27 1.23-1.02 1.93-2.42 2.1-4.21.17-1.7-.24-3.19-1.21-4.46M567.99 164.44c-1.02-2.04-2.08-3.63-3.19-4.78-1.1-1.15-2.04-1.98-2.8-2.49v-1.02h31.73v1.02c-1.27.94-2.02 2.29-2.23 4.08-.21 1.78.36 4.21 1.72 7.26l17.59 37.21 17.84-38.23c1.27-2.72 1.72-4.95 1.34-6.69s-1.17-2.95-2.36-3.63v-1.02h30.84v1.02c-.85.51-1.81 1.34-2.87 2.49s-2.15 2.74-3.25 4.78l-41.42 81.69h-1.4zM670.83 171.58c0-3.99-.34-7.12-1.02-9.37s-1.66-3.93-2.93-5.03v-1.02h28.16v1.02c-1.27 1.11-2.23 2.78-2.87 5.03s-.96 5.37-.96 9.37v57.09q0 5.865.96 9.3c.64 2.29 1.59 3.99 2.87 5.1v1.02h-28.16v-1.02c1.27-1.1 2.25-2.8 2.93-5.1q1.02-3.435 1.02-9.3zM781.19 228.67q0 5.865 1.02 9.3c.68 2.29 1.66 3.99 2.93 5.1v1.02h-28.16v-1.02c1.27-1.1 2.23-2.8 2.87-5.1q.96-3.435.96-9.3v-15.04l-27.02-22.56v37.59q0 5.865.96 9.3c.64 2.29 1.55 3.99 2.74 5.1v1.02h-28.04v-1.02c1.27-1.1 2.25-2.8 2.93-5.1q1.02-3.435 1.02-9.3v-56.07c0-4.08-.38-7.39-1.15-9.94s-1.87-4.38-3.31-5.48v-1.02h24.34v.76c-2.29 4.33-1.49 8.2 2.42 11.6l25.11 21.03v-17.97c0-3.99-.32-7.12-.96-9.37s-1.59-3.93-2.87-5.03v-1.02h28.16v1.02c-1.27 1.11-2.25 2.78-2.93 5.03s-1.02 5.37-1.02 9.37v57.09ZM803.49 171.58c0-3.99-.38-7.12-1.15-9.37-.76-2.25-1.83-3.93-3.19-5.03v-1.02h52.12c1.95 0 3.91-.08 5.86-.25s3.65-.42 5.1-.76v23.83h-1.02c-1.96-2.72-6.75-4.08-14.4-4.08h-23.07v12.87h10.71c3.14 0 5.58-.23 7.33-.7 1.74-.47 3.04-1.12 3.89-1.98h1.02v22.68h-1.02c-.85-.85-2.15-1.51-3.89-1.98s-4.19-.7-7.33-.7h-10.71v20.26h23.7c3.99 0 7.14-.34 9.43-1.02q3.435-1.02 5.1-3.06h1.02v23.83c-1.53-.43-3.27-.7-5.22-.83-1.96-.13-3.91-.19-5.86-.19h-52.76v-1.02c1.36-1.1 2.42-2.8 3.19-5.1s1.15-5.39 1.15-9.3v-57.09ZM921.88 177.95h-1.02c-.6-.68-1.34-1.32-2.23-1.91q-1.335-.885-3-1.53c-.76-.25-1.61-.49-2.55-.7s-2.08-.32-3.44-.32q-4.2 0-6.63 2.04c-1.62 1.36-2.42 3.02-2.42 4.97 0 1.78.57 3.36 1.72 4.71 1.15 1.36 3.16 3.02 6.05 4.97l5.22 3.57c4.5 3.23 8.05 6.9 10.64 11.02s3.89 8.77 3.89 13.96c0 7.73-2.8 14.04-8.41 18.92-5.61 4.89-13.72 7.33-24.34 7.33-2.89 0-5.84-.19-8.86-.57s-5.38-.78-7.07-1.21v-22.17h1.02c.85.85 1.68 1.57 2.49 2.17s1.63 1.15 2.48 1.66c1.1.59 2.4 1.08 3.89 1.47 1.49.38 3.25.57 5.29.57 3.31 0 5.95-.85 7.9-2.55s2.93-3.78 2.93-6.25c0-2.21-.74-4.22-2.23-6.05s-3.89-3.93-7.2-6.31l-5.23-3.57c-4.42-3.23-7.71-6.65-9.88-10.26s-3.25-7.67-3.25-12.17c0-7.39 2.76-13.32 8.28-17.78s13.3-6.69 23.32-6.69c1.95 0 3.61.09 4.97.25 1.36.17 2.5.25 3.44.25 1.27 0 2.68-.21 4.21-.64v22.81ZM.4 318.95h8.74c.28 6.43 2.31 9.09 6.01 9.09 3.15 0 5.03-1.75 5.03-6.29v-1.05c0-3.71-.7-5.66-7.62-7.97-8.11-2.73-11.11-6.64-11.11-14.05v-.7c0-8.67 5.73-14.12 13.28-14.12 8.04 0 13.28 4.82 13.84 15.1h-8.81c-.21-5.59-1.89-7.9-4.89-7.9-2.59 0-4.54 1.96-4.54 6.08v1.05c0 4.12.84 5.17 7.13 7.34 7.76 2.73 11.67 6.36 11.67 14.4v.7c0 9.16-6.08 14.68-14.12 14.68-9.02 0-14.26-5.73-14.61-16.36M69.94 313.28c0 8.74-2.24 14.89-6.29 18.45l3.7 6.5H59.8l-1.96-3.5c-1.47.35-3.01.56-4.61.56-10.56 0-16.64-7.55-16.64-22.02v-7.41c0-14.47 6.08-22.02 16.64-22.02s16.71 7.55 16.71 22.02v7.41Zm-12.86 6.92 2.17 3.77c.98-2.31 1.47-5.8 1.47-10.62v-7.55c0-10.42-2.1-14.4-7.48-14.4s-7.41 3.98-7.41 14.4v7.55c0 10.35 2.03 14.4 7.41 14.4h.56l-4.26-7.55h7.55ZM79.1 320.27v-35.51h8.95v35.3c0 3.98.84 7.48 5.52 7.48s5.66-3.29 5.66-7.55v-35.23h8.81v35.44c0 8.95-4.96 15.1-14.47 15.1s-14.47-6.08-14.47-15.03M139.21 334.39l-2.52-11.67h-10.97l-2.52 11.67h-8.95l12.16-49.63h9.79l12.3 49.63h-9.3Zm-11.96-19.08h7.9l-3.91-18.52-3.98 18.52ZM156.19 334.39v-49.63h12.51l6.36 36.14 6.36-36.14h11.88v49.63h-8.25v-35.72l-6.78 35.72h-6.85l-6.71-35.37v35.37h-8.53ZM204.42 334.39v-49.63h8.95v49.63zM222.73 318.95h8.74c.28 6.43 2.31 9.09 6.01 9.09 3.15 0 5.03-1.75 5.03-6.29v-1.05c0-3.71-.7-5.66-7.62-7.97-8.11-2.73-11.11-6.64-11.11-14.05v-.7c0-8.67 5.73-14.12 13.28-14.12 8.04 0 13.28 4.82 13.84 15.1h-8.81c-.21-5.59-1.89-7.9-4.89-7.9-2.59 0-4.54 1.96-4.54 6.08v1.05c0 4.12.84 5.17 7.13 7.34 7.76 2.73 11.67 6.36 11.67 14.4v.7c0 9.16-6.08 14.68-14.12 14.68-9.02 0-14.26-5.73-14.61-16.36M260.54 334.39v-49.63h9.02v20.41h11.6v-20.41h9.02v49.63h-9.02v-21.81h-11.6v21.81zM315.9 334.39v-49.63H331c6.64 0 11.81 4.33 11.81 12.72v.84c0 4.26-1.82 7.83-4.61 9.86 3.71 2.1 5.87 6.71 5.87 11.39v.91c0 8.74-4.82 13.91-12.09 13.91zm8.8-28.94h4.26c2.66 0 4.68-1.82 4.68-6.29v-.7c0-4.26-1.89-6.22-4.68-6.22h-4.26zm0 21.46h5.52c2.8 0 4.68-2.17 4.68-6.57v-.84c0-4.26-1.75-6.57-4.54-6.57h-5.66zM352.73 334.39v-49.63h14.82c7.41 0 13.21 5.24 13.21 15.1v.98c0 7.06-2.87 11.74-7.27 13.84l7.41 19.71h-9.51l-6.71-18.45h-3.01v18.45h-8.95Zm8.95-25.86h4.75c2.66 0 5.24-2.45 5.24-7.69v-.98c0-5.31-2.17-7.62-5.24-7.62h-4.75zM390.05 334.39v-49.63h25.02v7.41h-16.01v13.21h14.47v7.34h-14.47v14.05h16.43v7.62zM430.87 334.39l-8.39-49.63h9.23l4.47 34.11 5.24-34.11h9.02l5.03 34.46 4.61-34.46h8.67l-8.46 49.63h-9.72l-4.75-33.55-4.96 33.55h-10ZM477.21 334.39v-49.63h8.95v49.63zM497.2 334.39v-49.63h10.28l11.18 32.78v-32.78h8.39v49.63h-9.86l-11.53-33.76v33.76zM536.34 313.28v-7.48c0-14.4 6.08-21.95 16.5-21.95 9.72 0 14.68 7.13 15.1 18.66h-8.95c-.14-7.06-1.68-11.11-6.29-11.11-5.03 0-7.13 4.05-7.13 14.4v7.48c0 10.42 2.1 14.47 7.55 14.47s7.41-3.98 7.41-10.9v-1.82h-7.55v-7.34h15.38v26.7h-6.08l-.56-5.52c-1.61 3.36-4.75 6.43-10.55 6.43-8.39 0-14.82-7.55-14.82-22.02ZM615.67 334.39l-2.52-11.67h-10.97l-2.52 11.67h-8.95l12.16-49.63h9.79l12.3 49.63h-9.3Zm-11.95-19.08h7.9l-3.91-18.52-3.98 18.52ZM632.66 334.39v-49.63h10.28l11.18 32.78v-32.78h8.39v49.63h-9.86l-11.53-33.76v33.76zM673.05 334.39v-49.63h13.14c10.21 0 17.33 5.45 17.33 21.11v7.41c0 15.66-7.2 21.11-17.33 21.11zm8.95-7.48h3.71c4.82 0 8.53-1.75 8.53-13.63v-7.41c0-11.74-3.15-13.63-8.46-13.63h-3.77v34.67ZM726.31 318.95h8.74c.28 6.43 2.31 9.09 6.01 9.09 3.15 0 5.03-1.75 5.03-6.29v-1.05c0-3.71-.7-5.66-7.62-7.97-8.11-2.73-11.11-6.64-11.11-14.05v-.7c0-8.67 5.73-14.12 13.28-14.12 8.04 0 13.28 4.82 13.84 15.1h-8.81c-.21-5.59-1.89-7.9-4.89-7.9-2.59 0-4.54 1.96-4.54 6.08v1.05c0 4.12.84 5.17 7.13 7.34 7.76 2.73 11.67 6.36 11.67 14.4v.7c0 9.16-6.08 14.68-14.12 14.68-9.02 0-14.26-5.73-14.61-16.36M763.64 320.27v-35.51h8.95v35.3c0 3.98.84 7.48 5.52 7.48s5.66-3.29 5.66-7.55v-35.23h8.81v35.44c0 8.95-4.96 15.1-14.47 15.1s-14.47-6.08-14.47-15.03M802.99 334.39v-49.63h14.19c7.48 0 13.35 5.24 13.35 15.1v.98c0 9.93-5.8 15.1-13.35 15.1h-5.24v18.45zm8.94-25.86h4.68c2.59 0 4.82-2.31 4.82-7.69v-.98c0-5.38-2.24-7.62-4.82-7.62h-4.68zM839.47 334.39v-49.63h14.19c7.48 0 13.35 5.24 13.35 15.1v.98c0 9.93-5.8 15.1-13.35 15.1h-5.24v18.45zm8.95-25.86h4.68c2.59 0 4.82-2.31 4.82-7.69v-.98c0-5.38-2.24-7.62-4.82-7.62h-4.68zM875.96 334.39v-49.63h9.02v42.01H897v7.62zM908.18 334.39v-16.15l-10.9-33.48h9.44l6.08 22.16 5.87-22.16h9.16l-10.7 33.48v16.15z"/></g></svg>