<svg xmlns="http://www.w3.org/2000/svg" id="Layer_2" data-name="Layer 2" viewBox="0 0 910.08 901.93"><defs><style>.cls-1{fill:#4a6f4b}</style></defs><g id="Layer_1-2" data-name="Layer 1"><path d="M73.79 485c3.12-4.89 5.92-8.45 8.39-10.7 2.48-2.25 5.28-3.46 8.42-3.63 3.5-.19 6.53 1.03 9.09 3.68q3.84 3.96 4.23 11.01c.16 2.89.02 5.41-.4 7.55-.43 2.14-1.02 4.02-1.78 5.63-.66 1.25-1.38 2.46-2.16 3.65s-1.74 2.43-2.88 3.69l.08 1.45 31.46-1.72c.47-2.44.86-5.82 1.17-10.13s.35-8.51.13-12.61c-.82-15.07-4.91-26.39-12.28-33.97-7.36-7.58-16.53-11.07-27.5-10.47q-11.025.6-19.5 6.6c-5.65 4-10.58 9.31-14.82 15.95l-4.66 7.69c-2.55 4.25-4.74 7.24-6.59 8.97-1.84 1.73-4.03 2.67-6.56 2.81-2.77.15-5.19-.86-7.24-3.05-2.05-2.18-3.19-5.27-3.41-9.25-.11-1.93-.04-3.56.19-4.91.23-1.34.5-2.57.8-3.67.52-1.6 1.17-3.06 1.94-4.37.78-1.31 1.62-2.42 2.54-3.31l-.08-1.45L0 452.2c.72 2.14 1.13 4.11 1.23 5.92.07 1.33.04 2.96-.09 4.9-.14 1.94-.13 4.3.02 7.07.78 14.23 4.54 25.09 11.3 32.58s15.38 10.95 25.87 10.38c6.39-.35 12.06-2.2 17.02-5.55s9.55-8.29 13.79-14.81L73.8 485ZM33.96 415.56q-4.83-5.25-1.53-21.21l2.31-11.17 74.84 15.48c5.44 1.13 9.66 2.46 12.67 4.01q4.515 2.325 6.27 5.46l1.42.29 8.07-39.02-1.42-.29q-2.85 2.19-7.92 2.52c-3.38.23-7.78-.22-13.22-1.35L40.61 354.8l2.31-11.17c1.15-5.55 2.49-9.81 4.03-12.76 1.53-2.95 3.47-4.98 5.79-6.11l.29-1.42-33.16-6.86c.06 2.11-.08 4.55-.4 7.31-.32 2.77-.77 5.51-1.33 8.23L5.08 395.16c-.54 2.6-1.21 5.27-2.02 7.99q-1.215 4.095-2.55 6.96l33.17 6.86.29-1.42ZM45.36 278.92c3.33.58 7.49 2.22 12.47 4.94l71.25 38.81c4.88 2.66 8.49 5.24 10.83 7.76 2.34 2.51 3.74 5 4.2 7.44l1.27.69 35.87-65.84c1.33-2.44 2.73-4.83 4.22-7.19 1.49-2.35 3.01-4.34 4.59-5.96l-29.74-16.2-.69 1.27c.95 2.3 1.06 5.12.35 8.44-.71 3.33-2.42 7.48-5.14 12.46l-16.11 29.58-25.29-13.77 7.28-13.36c2.14-3.92 4.09-6.81 5.86-8.67 1.77-1.85 3.47-3.02 5.11-3.51l.69-1.27-28.31-15.42-.69 1.27c.48 1.64.42 3.7-.18 6.19s-1.97 5.7-4.11 9.62l-7.28 13.36-16.06-8.75 15.68-28.79c5.2-9.54 10.16-14.61 14.88-15.2l.69-1.27-29.74-16.2c-.56 2.04-1.39 4.33-2.51 6.88a96 96 0 0 1-3.67 7.49l-35.43 65.05 1.27.69c2.3-.95 5.12-1.13 8.45-.55ZM111.76 173.02c3.04 1.39 6.69 3.97 10.94 7.72l60.85 53.67c4.17 3.67 7.15 6.95 8.96 9.83s2.7 5.52 2.68 7.92l1.09.96 26.47-30.02-1.09-.96q-3.555.48-8.13-1.74c-3.04-1.48-6.65-4.05-10.81-7.73L141.87 159c-4.26-3.75-7.28-7.03-9.09-9.82-1.8-2.79-2.69-5.39-2.67-7.79l-1.09-.96-26.47 30.02 1.09.96c2.38-.32 5.08.22 8.12 1.61M164.28 116.55c2.94 2.38 6.05 5.96 9.31 10.74l44.96 65.79c3.13 4.59 5.22 8.5 6.26 11.73 1.04 3.24 1.26 6.02.65 8.33l.82 1.2 32.9-22.48-.82-1.2c-2.28-.34-4.72-1.6-7.3-3.79-2.59-2.18-5.45-5.56-8.58-10.15l-30.14-44.11 49.79 4.8 12.06 17.64c3.13 4.59 5.25 8.48 6.34 11.68q1.635 4.8.72 8.28l.82 1.2 33.04-22.58-.82-1.2q-3.57-.405-7.53-3.63c-2.64-2.15-5.52-5.51-8.66-10.1l-45.78-66.99c-3.2-4.68-5.31-8.62-6.31-11.81-1.01-3.18-1.21-5.94-.6-8.26l-.82-1.2-33.04 22.58.82 1.2c2.38.27 4.85 1.48 7.4 3.61s5.43 5.54 8.63 10.22l14.41 21.08-46.32-4.54c-7.31-.85-11.36-4.74-12.14-11.66l-.61-.9-28.56 19.52.82 1.2c2.58.14 5.34 1.4 8.28 3.77ZM304.98 80.77c4.48 3.97 10.4 7.2 17.77 9.69l8.61 2.6c5.51 1.81 9.66 3.63 12.45 5.47s4.67 4.26 5.61 7.25c1.05 3.34.62 6.58-1.3 9.72s-5.13 5.41-9.62 6.83c-2.76.87-5.24 1.37-7.41 1.48-2.18.12-4.14 0-5.89-.33-1.37-.33-2.73-.72-4.08-1.18s-2.78-1.09-4.29-1.88l-1.38.44 9.47 30.05c2.48-.15 5.85-.61 10.1-1.38s8.33-1.77 12.25-3.01c14.39-4.54 24.35-11.31 29.86-20.33 5.51-9.01 6.62-18.76 3.32-29.24-2.21-7.02-5.96-12.77-11.23-17.25s-11.65-7.94-19.13-10.4l-8.61-2.6c-4.75-1.41-8.19-2.8-10.33-4.15-2.13-1.35-3.58-3.24-4.35-5.66-.83-2.65-.45-5.24 1.16-7.77s4.31-4.4 8.11-5.59c1.84-.58 3.44-.92 4.8-1.04 1.36-.11 2.61-.16 3.75-.14 1.68.11 3.25.37 4.71.79 1.46.43 2.74.97 3.84 1.64l1.38-.44-9.74-30.92c-1.89 1.23-3.7 2.12-5.43 2.66-1.27.4-2.86.78-4.77 1.12-1.92.35-4.2.94-6.85 1.78-13.59 4.28-23.17 10.63-28.75 19.03-5.58 8.41-6.79 17.62-3.63 27.64 1.92 6.1 5.12 11.14 9.6 15.11ZM454.16 122.65c6.13 4.19 13.52 6.73 22.17 7.6 7.21.72 14.2-.03 20.98-2.26s12.84-5.81 18.19-10.73l2.07 4.76c1.31 3.89.68 6.5-1.88 7.82l-.14 1.44 35.5 3.57.15-1.44c-1.14-.72-2.36-1.88-3.66-3.46-1.3-1.59-2.6-3.72-3.91-6.4l-8.3-20.67 15.81-12.43 3.22-32.07-1.62-.16-26.65 24.26q-4.035-8.775-7.95-15.09c-2.61-4.2-5.66-8.3-9.14-12.29 3.99-2.27 7.2-5.28 9.65-9.04 2.44-3.76 3.89-7.92 4.35-12.49.58-5.77-.38-11.05-2.87-15.85S514 8.97 509.22 5.88C504.43 2.79 498.74.91 492.13.25c-6.49-.65-12.41.03-17.77 2.04s-9.73 5.06-13.12 9.15-5.36 8.96-5.93 14.6c-.43 4.33.15 8.51 1.74 12.55 1.6 4.05 3.91 7.31 6.93 9.8-7.48 3.13-13.58 7.74-18.32 13.81-4.74 6.08-7.53 13.32-8.37 21.73q-1.245 12.435 3.21 22.44c2.97 6.67 7.52 12.1 13.65 16.3Zm26.55-92.07c.48-2.38 1.7-4.2 3.64-5.46 1.95-1.26 4.05-1.65 6.31-1.19q3.57.72 5.37 3.63t1.08 6.48c-.5 2.5-1.69 4.38-3.57 5.65-1.89 1.27-4.02 1.66-6.4 1.18-2.26-.47-4.02-1.68-5.28-3.62-1.26-1.95-1.65-4.17-1.15-6.67m-15.18 53.26c.54-5.41 2.6-9.93 6.19-13.58 3.58-3.64 8.11-6.1 13.57-7.37q11.85 12.48 20.22 32.43c-2.74 3.12-6.27 5.59-10.57 7.4-4.31 1.81-8.38 2.52-12.23 2.14-5.89-.59-10.36-2.83-13.43-6.72s-4.32-8.65-3.75-14.3M621.07 174.99l1.71 1.02L732.7 106.3q4.245-2.535 7.44-3.48c2.13-.63 3.9-.95 5.31-.95l.74-1.25-37.67-22.4-.74 1.24q1.44 2.55.24 6.15c-.8 2.41-2.96 4.81-6.49 7.2l-49.56 33.74 5.54-58.23c.56-4.72 1.62-8.1 3.17-10.12 1.55-2.03 3.45-3.14 5.69-3.36l.74-1.24-38.76-23.05-.74 1.24q.84 1.77 1.62 5.07c.51 2.2.66 4.92.42 8.15l-8.58 129.96ZM686.97 209.58c-3.01 1.57-5.71 2.26-8.1 2.05l-1.04 1.01 27.87 28.73 1.04-1.01c-.14-2.39.65-5.05 2.36-7.97s4.56-6.31 8.54-10.18l58.23-56.5c4.07-3.95 7.57-6.72 10.5-8.3 2.92-1.58 5.58-2.26 7.97-2.06l1.04-1.01-27.87-28.73-1.04 1.01c.13 2.39-.61 5.05-2.23 7.97-1.63 2.92-4.47 6.36-8.54 10.31l-58.23 56.5c-3.99 3.87-7.49 6.59-10.5 8.17ZM723.74 244.81c-3.31.78-6.1.78-8.36 0l-1.26.72 19.82 34.56 1.26-.72c.52-2.25 1.97-4.57 4.35-6.98s5.97-4.99 10.79-7.76l46.34-26.58-8.7 49.25-18.54 10.63c-4.82 2.76-8.87 4.56-12.14 5.4-3.28.84-6.05.86-8.31.07l-1.26.72 19.92 34.72 1.26-.72c.46-2.35 1.86-4.76 4.21-7.22s5.93-5.07 10.75-7.83l70.38-40.37q7.38-4.23 12.27-5.37c3.25-.75 6.01-.74 8.28.05l1.26-.72-19.91-34.72-1.26.72c-.46 2.35-1.86 4.72-4.18 7.09-2.33 2.38-5.95 4.98-10.87 7.8l-22.15 12.71 8.17-45.82c1.42-7.22 5.62-10.95 12.58-11.19l.94-.54-17.21-30-1.26.72c-.34 2.56-1.81 5.21-4.41 7.96s-6.42 5.56-11.44 8.44l-69.12 39.65c-4.82 2.76-8.88 4.54-12.19 5.32ZM790.83 345.54c-5.44 1.13-9.86 1.49-13.28 1.08-3.41-.4-6.09-1.39-8.01-2.97l-1.42.29 15.2 73.42c.56 2.72 1.04 5.46 1.42 8.21.38 2.76.51 5.26.35 7.51l33.16-6.87-.29-1.42c-2.21-1.15-4.12-3.22-5.72-6.21-1.61-3-2.99-7.27-4.14-12.83l-6.83-32.99 28.2-5.84 3.08 14.9c.91 4.37 1.28 7.84 1.14 10.4-.15 2.56-.69 4.55-1.63 5.98l.29 1.42 31.57-6.54-.29-1.42c-1.43-.94-2.72-2.55-3.87-4.84q-1.725-3.435-3.09-9.99l-3.08-14.9 17.91-3.71 6.65 32.1q3.3 15.96-1.53 21.21l.29 1.42 33.16-6.87c-.89-1.91-1.73-4.2-2.53-6.87s-1.48-5.37-2.04-8.09l-15.02-72.53-1.42.29q-1.725 3.315-6.09 5.88c-2.91 1.71-7.15 3.14-12.7 4.29l-79.45 16.45ZM877.1 446.55c-6.39-.39-12.24.79-17.55 3.55s-10.45 7.13-15.41 13.12l-5.52 7.1c-3.66 4.49-6.85 7.72-9.57 9.67s-5.65 2.83-8.78 2.64c-3.5-.21-6.36-1.78-8.6-4.7s-3.22-6.73-2.93-11.43c.18-2.89.6-5.38 1.27-7.45.67-2.08 1.48-3.87 2.42-5.39.8-1.16 1.65-2.29 2.57-3.38.91-1.1 2.01-2.21 3.29-3.34l.09-1.45-31.45-1.93c-.75 2.37-1.53 5.68-2.33 9.93-.8 4.24-1.33 8.41-1.58 12.51q-1.38 22.59 8.28 35.16c6.44 8.38 15.14 12.9 26.11 13.57 7.35.45 14.06-.99 20.13-4.3 6.07-3.32 11.59-8.03 16.56-14.14l5.52-7.1c3.02-3.93 5.55-6.65 7.57-8.15 2.03-1.51 4.31-2.19 6.84-2.03q4.155.255 6.84 3.87c1.79 2.41 2.56 5.6 2.32 9.58-.12 1.93-.37 3.54-.75 4.85-.38 1.3-.79 2.49-1.21 3.55q-1.05 2.295-2.43 4.11c-.92 1.21-1.89 2.21-2.9 3l-.09 1.45 32.36 1.98c-.47-2.21-.65-4.21-.54-6.02q.12-1.995.66-4.86c.36-1.91.62-4.26.79-7.03q1.305-21.33-7.47-33.66c-5.85-8.22-14.01-12.65-24.5-13.29ZM112.05 680.42c-13.79 8.36-21.74 9.66-26.36 2.04-4.9-8.07-.43-15.38 16.27-25.51l12-7.27c16.59-10.06 25.13-10.64 29.96-2.68 4.42 7.29.11 13.58-12.87 21.76l8.7 14.35c19.75-12.44 25.65-27.98 16.48-43.11-10.13-16.7-28.15-19.11-51.24-5.11L93 642.17c-23.2 14.07-29.39 31.17-19.2 47.98 9.31 15.36 25.98 17.05 46.97 4.63l-8.7-14.35ZM186.29 730.09l1.38-1.21c13.87-12.21 14.06-26.88 4.88-37.31l-18.37-20.86-69.86 61.51 11.09 12.59 25.98-22.87 3.73 4.23-17.66 32.32 11.78 13.38 18.56-34.86c8.41 3.6 18.55 1.83 28.49-6.92m-34.47-17.33 22.93-20.19 5.89 6.69c3.81 4.33 3.25 10.24-4.23 16.82l-1.38 1.21c-7.38 6.5-14.03 5.89-17.32 2.15l-5.89-6.69ZM227.82 725.88l-75.86 58.57 13.12 10.46 17.34-14.18 16.09 12.83-9.96 20.06 13.63 10.87 39.98-87.17-14.35-11.44Zm-22.9 55.01-11.58-9.24 27.5-22.51-15.91 31.74ZM273.57 774.49l24.53 13.61 6.74-12.15-39.32-21.82-45.15 81.39 14.79 8.2 18.82-33.93 21.9 12.15 6.74-12.15-21.9-12.15zM357.04 795.73l-46.63-17.16-4.89 13.28 15.5 5.71-27.26 74.06 15.75 5.8 27.26-74.06 15.37 5.66zM347.62 889.3l46.82 9.19 2.75-14.03-30.23-5.93 5.08-25.86 26.63 5.23 2.65-13.51-26.63-5.22 4.77-24.32 29.46 5.78L411.6 807l-46.06-9.04zM446.03 808.86l-24.64-.5-1.91 93.06 24.64.5c19.01.39 32.72-9.56 33.32-38.92l.29-13.89c.6-29.36-12.56-39.86-31.7-40.25m14.26 39.89-.28 13.89c-.46 22.28-7.47 25.42-16.51 25.23l-6.95-.14 1.33-65.01 7.08.14c9.96.2 15.79 3.86 15.34 25.88ZM577.52 857.05c-2-8.55-7.93-16.05-15.59-18.3 4.24-4.9 6.04-12.18 4.21-19.97l-.36-1.53c-3.59-15.32-14.88-21.02-27.01-18.18l-27.57 6.45 21.21 90.63 29.36-6.87c13.28-3.1 19.87-14.61 16.14-30.57zm-47.04-41.64 7.79-1.82c5.11-1.19 9.39 1.57 11.21 9.36l.3 1.28c1.91 8.17-1.01 12.35-5.86 13.49l-7.79 1.82zm24.9 60.95-10.08 2.36-5.97-25.53 10.34-2.42c5.11-1.2 9.28 2.27 11.1 10.06l.36 1.53c1.88 8.04-.64 12.81-5.74 14ZM615.7 771.87l-15.9 6.49 5.52 42.64-26.27-34.16-16.39 6.69 42.69 50.4 11.45 28.03 15.53-6.35-11.45-28.03zM685.26 725.88l-13.96 10 15.25 40.2-33.47-27.14-14.38 10.3 53.19 39.14 17.64 24.61 13.64-9.77-17.64-24.62zM757.21 709.65c-19.3-19.07-37.39-20.91-51.4-6.74-13.91 14.08-11.86 32.15 7.45 51.22l9.89 9.77c19.3 19.07 37.39 20.91 51.31 6.83 14.01-14.18 11.95-32.24-7.35-51.31l-9.89-9.77Zm7.17 51.13c-7.1 7.18-15.18 4.54-28.98-9.1l-10.07-9.95c-13.89-13.73-16.54-21.68-9.44-28.87 7.09-7.18 15.17-4.73 29.07 9l10.07 9.95c13.8 13.64 16.45 21.78 9.35 28.96ZM818.96 667.85l-55.14-37.12-9.23 13.7 54.81 36.9c6.63 4.47 10.65 9.54 5.82 16.72-4.91 7.29-11.22 4.93-17.42.76l-54.92-36.98-9.37 13.92 55.25 37.2c13.92 9.37 28.58 8.02 38.54-6.77s5.59-28.96-8.33-38.33Z" class="cls-1"/><circle cx="71.18" cy="580.3" r="8.22" class="cls-1" transform="rotate(-67.5 71.183 580.295)"/><circle cx="830.71" cy="580.3" r="8.22" class="cls-1"/><path d="M285.91 685.52c38.66 19.12 113.48 25 176.34 24.33-3.15-6.39-3.58-13.3-1.41-19.56-5.88-.74-10.34-5.27-12.79-7.76l-.13-.14c-7.45-8.12-8.38-21.09-2.18-30.24.09-.15.19-.3.3-.46-2.11 2.58-4.81 4.97-8.01 7.06-1.15.77-2.5 1.15-3.86 1.15h-.48c-2.31 1.97-4.69 3.39-6.59 4.43l-.15.08c-2.8 1.51-6.1 3.06-9.21 3.06-2.48 0-4.71-.96-6.27-2.7a8 8 0 0 1-1.74-3.17c-1.26.27-2.57.41-3.93.41-3.45 0-6.58-.85-9.61-1.67-2.61-.71-5.08-1.38-7.42-1.38-.28 0-.57 0-.85.03-.18.02-.35.03-.52.03a7.045 7.045 0 0 1-6.37-10.06c.87-1.84 1.31-4.31 1.78-6.91.81-4.47 1.78-9.85 5.43-14.4-.18-.15-.34-.31-.51-.48l-.07-.07c-2.25-2.41-2.79-5.87-1.42-9.03 1.96-4.51 9-9.19 15.08-11.69.52-1.24 1.47-2.61 3.19-3.75 4.1-2.71 8.86-4.13 13.8-4.13 3.82 0 7.5.88 10.7 2.5-.28-.89-.56-1.76-.83-2.58-16.3-17.81-29.18-38.2-41.63-57.94-21.73-34.41-40.7-64.46-71.94-73.41-.24 1.92-.43 3.63-.46 4.46-.2 6.3-.09 11.22.36 15.08.06.4.44 1.93.66 2.85.64 2.65 1.03 4.24.8 5.81 7.77-4.2 17.72-4.44 25.54-.31 7.73 4.08 12.01 11.7 11.94 21.09 4.38-.09 8.48.8 12.08 2.7 10.06 5.31 17.3 20.22 11.44 35.06-1.95 4.92-5.55 9.59-10.89 12.39.96 1.82 1.35 3.8 1.64 5.25.08.38.14.74.22 1.06l.05.21.04.22c1.22 7.27-.66 14.68-5 19.82l-.11.15c-2.24 2.65-4.95 4.73-7.92 6.24.19.23.38.48.55.73l.15.23.13.24c4.51 8.43 3.41 19.96-2.56 26.82l-.11.12c-5.28 6.2-13.77 9.55-22.19 8.8-3.06-.17-6.01-.99-8.77-2.45-8.57-4.52-13.43-13.84-13.04-23.37-1.42.32-2.91.3-4.41-.09l-.12-.04c-1.86-.36-3.81-1.08-5.86-2.17-.55-.29-1.1-.6-1.64-.92-1.42-.79-2.73-1.66-3.91-2.6-2.53 4.2-4.41 8.66-3.11 14.09.56 2.36 3.2 4.1 3.28 6.16.08 2.65-3.83 6.74-4.44 9.73-1.08 5.33.11 9.76-2.06 15.7-5.82 15.73-28.25 21.91-1 35.4ZM573.46 648.6c-4.99.55-9.95.94-14.82 1.17 4.98 4.39 8.14 10.4 8.6 16.51l.02.18c.28 3.58-.2 7.07-1.29 10.33.31.03.63.07.93.14l.28.05.26.08c8.9 2.77 16.13 11.19 17.4 20 14.99-3.35 29.42-7.52 38.08-12.38-1.68-.28-3.41-.63-5.08-1.08-1.17 1.13-3.22 2.46-6.42 2.46h-.3c-13-.33-25.07-7.92-30.78-19.32-3-6.01-3.92-12.41-2.8-18.64-1.35.18-2.71.33-4.09.49Z" class="cls-1"/><path d="M645.77 674.91c-.11-.94-10.66-11.18-9.72-15.76 4.96.48 8.73 2.4 14.07 1.87 13.86-1.42 20.5-15.95 31.83-22.63-15.88-9.86-17.92-32.31-42.06-24.09 1.01-6.81 6.01-10.07 9.75-14.44 3.74-4.38-8.25-5.65-10.65-5.94-6.93-.82-13.65-.66-20.11 2.2l.93-5.03c-5.49-.17-10.53.46-14.94 1.82-14.75 4.55-22.27 17.42-14.7 36.97l-3.86.95c-11.81 1.25-23.71 1.84-35.58 1.41.73 3.4.8 7.05-.08 10.7 7.35-.07 14.71-.55 22.02-1.37 1.52-.17 3.02-.34 4.54-.55 3.89-.5 7.78-1.1 11.63-1.79-12.95 18.2 2.88 39.26 22.45 39.76 4.29.11.2-5.28 2.29-5.06 1.88 2.24 9.41 3.98 16.7 4.53 8.08.61 15.88-.26 15.47-3.58ZM446.05 651.69c.48-.57.92-1.15 1.34-1.74-.53.63-.98 1.22-1.34 1.74M520.95 656.98l-.12-.21c-7.16-12.44-23.4-11.99-32.24-1.59-10.52 13.57 1.32 34.86 18.98 32.03 15.42-1.99 20.85-17.64 13.39-30.24ZM579.26 698.28c-.8-6.91-6.61-13.62-13.5-15.76-2.05-.42-2.83 1.84-4.05 3.1-2.19 2.85-5.28 4.91-8.73 6.34-2.62 1.14-5.3 2.05-8.2 2.42-1.33.21-2.92.4-3.92 1.29-2.15 2.42-2.16 6.02-1.31 9.33.3 1.17.7 2.31 1.15 3.35 5.29 12.8 21.6 16.81 30.69 8.7 5.25-4.29 8.44-11.17 7.95-17.77l-.02-.26a19 19 0 0 0-.07-.74ZM504.85 694.3c-.41-.6-1.21-.82-1.94-1.05-4.9-1.39-9.95-1.81-13.77-5.25-2.45-2-3.87-4.07-5.82-6.24-.99-1.07-2.12-2.1-3.63-2.12-3.8.33-7.5 3.56-10.07 6.48-5.99 7.32-5.35 16.2-1.36 22.86.16.26.33.52.49.77 8.45 12.69 27.15 10.26 34.01-1.31 2.24-3.76 3.21-8.49 2.18-13.98l-.11-.16Z" class="cls-1"/><path d="M540.62 649.86c2-2.2 3.35-4.54 4.13-6.92 1.22-3.67 1.11-7.44.04-10.98-.78-2.62-2.11-5.12-3.83-7.35-6.9-9.04-20.15-13.85-30.33-5.65-1.84 1.48-3.58 3.39-5.16 5.78-.08.11-.16.24-.24.36l-.13.22c-1.31 2.5-2.68 7.56-2.92 11.59-.11 2.04.04 3.82.65 4.87 1.34 1.58 3.88 1.24 5.78 1.7 3.66.52 6.39 2.26 9.41 4.12 0 0 .02 0 .03.02 1.48.94 2.92 2.03 4.15 3.32 4.33 4.91 4.99 8.24 10.83 4.84 3.19-1.79 5.7-3.79 7.61-5.9ZM553.2 652.7c-1.23-.75-2.93-2.12-4.55-2.68-.85-.3-1.68-.37-2.42-.02-.33.17-.66.42-.95.79-2.63 3.51-5.09 6.74-9.5 8.27-2.14 1.22-6.41 1.43-6.03 4.66.27 3.27.72 7.77-.15 11.3-2.14 7.18-5.72 6.98 2.74 11.56 14.14 8.08 30.46-4.45 29.25-19.63l-.02-.23c-.41-5.32-3.68-10.64-8.36-14.02ZM501.4 623.35c.11-.36.19-.73.23-1.12l-.04-.22c-5.77-6.73-12.53-8.32-18.57-6.83-4.89 1.22-9.31 4.47-12.34 8.67-2.61 3.6-4.19 7.9-4.19 12.22 0 5.84 2.89 11.7 10.06 15.95 6.52 4.39 7.77-1.96 12.14-5.33 1.96-1.67 5.22-2.77 7.85-4.13.04-.02.08-.04.11-.05 1.78-.78 1.6-2.67 1.44-4.36-.09-.85-.16-1.69-.19-2.54-.11-2.26.05-4.51.92-6.7.55-2.09 2.03-3.72 2.6-5.57ZM479.08 660.2l-.08-.18c-.64-1.01-2.11-1.22-3.15-1.73-5.53-1.93-7.9-6.85-12.06-10.72-3.06-3.43-11.57 4.79-13.24 7.66-4.85 7.03-4.15 17.07 1.57 23.3 2.59 2.63 6.03 5.91 9.92 6.15.76-.11 1.36-.64 1.87-1.2 1.66-1.89 3.63-4.01 5.67-5.52 2.31-1.87 5.89-2.92 8.64-4.73 1.47-1.2.56-3.88.49-5.98-.54-2.47.63-4.82.37-7.05M517.2 719.39c.58.2 1.14.39 1.66.51.5.07 1.15.11 1.91.08h.2c2.21.05 4.55-.31 6.77-.92 2.28-.54 4.51-1.35 6.13-2.47 0 0 .02-.02.04-.03.08-.05.18-.1.26-.14.85-.49 1.42-1.15 1.72-1.91.05-.08.11-.17.15-.26v-.26c.15-.7.09-1.45-.2-2.25 0-.04-.03-.08-.04-.12-.35-1.94-1.05-3.95-1.58-5.92-.03-.1-.05-.19-.08-.29-.14-.64-.27-1.28-.38-1.89-.21-1.05-.27-2.12-.23-3.21 0-.17.02-.34.04-.52 0-.11.03-.23.04-.34.04-.38.1-.77.15-1.15l.12-.66c.02-.05.03-.11.04-.17.16-.71.37-1.41.47-2.03v-.04c.1-.49.14-.98-.04-1.36l-.08-.16s-.08-.04-.11-.07l-.04-.04c-.46-.54-1.11-.8-1.77-1.04-.04-.02-.1-.03-.13-.05l-.18-.06c-1-.41-2.06-.76-3.07-1.19-.63-.29-1.22-.62-1.8-1.03-1.55-1.07-3.14-3.36-4.51-3.44-.04 0-.08 0-.11.02h-.04c-.21 0-.43 0-.66.08-.18.09-.4.18-.63.28-.04 0-.07.02-.11.04-1.3.47-2.83 1.22-4.31 2-.04.02-.1.05-.15.08-1.4.69-2.8 1.43-3.93 2.13-.02 0-.04.03-.06.04a.3.3 0 0 1-.08.04c-.16.08-.33.16-.47.24-.11.09-.23.2-.32.3-.06.05-.13.1-.18.14-.06.1-.09.2-.14.3l-.09.12v.05c-.36.66-.49 1.46-.51 2.32v.76c0 1 .08 2.03.09 3.02 0 .25-.02.49-.05.72 0 .13 0 .26.02.39 0 .07 0 .16-.02.23.02.45 0 .87 0 1.29v.26c0 .04 0 .07-.02.11-.18 2.13-.77 4.1-1.51 6.09q-.075.24-.18.48c-.21.54-.43 1.09-.66 1.66-.08.18-.15.37-.23.55-.03.07-.05.16-.08.23-.06.15-.11.3-.16.44 0 .03-.02.06-.03.09v.03c-.02.04-.04.09-.04.15-.32.96-.46 1.94.39 2.65.15.11.3.23.48.36.16.11.33.24.5.35.03.03.06.05.1.07.16.11.3.22.48.34 2.03 1.39 4.76 3.02 7.19 3.95.04 0 .06.03.09.04ZM301.63 559.45c1.27 2.71 3.26 5.18 6.03 7.16 11.98 9.11 26.36 2.01 29.79-11.74l.06-.24c3.52-13.44-7.98-24.18-21.16-23.01-5.87.78-10.45 4.17-13.27 8.67-3.55 5.64-4.34 13.01-1.45 19.16M331.39 630.58c6.54.61 13.41-1.96 17.57-6.84l.17-.19c4.56-5.25 5.28-14.22 1.86-20.6-1.13-1.68-3.2-.65-4.9-.62-3.45.48-6.98-.21-10.34-1.57-2.58-1-5.05-2.19-7.29-3.9-1.06-.76-2.29-1.72-3.58-1.78-4.23.28-7.22 4.72-8.73 8.64-5.05 12.42 3.46 26.28 15.25 26.86ZM300.84 569.97s.06-.1.1-.14l.04-.18c.04-.26.02-.53-.06-.79v-.02c-.11-.41-.35-.84-.56-1.23-2.44-4.29-5.63-8.01-5.94-12.98-.32-3.04.11-5.43.24-8.27.04-1.4-.04-2.89-1.07-3.92-2.83-2.36-7.58-2.65-11.34-2.38-9.11.97-14.7 7.52-16.48 14.83-4.7 19.61 22.53 33.43 35.06 15.08Z" class="cls-1"/><path d="m348.3 522.19-.25.07c-3.92 1.24-11.87 6.42-12.75 9.79-.15 2 1.83 3.5 2.82 5.1 2.18 2.85 2.87 5.9 3.69 9.24.38 1.66.63 3.41.61 5.14-.35 6.33-2.16 9.07 4.18 10.69 36.13 9.87 34.93-47.46 1.7-40.04ZM358.69 589.36l.14-.17c3.34-3.94 4.69-9.84 3.77-15.34-.6-2.41-.88-7.13-4.17-6.71-4.21.63-8.09 1.19-12.18-.77-2.3-.61-5.39-3.36-7.32-.88-2.04 2.43-4.78 5.84-7.79 7.69-6.35 3.5-8.69.91-5.96 9.83 4.25 15.18 24.03 17.64 33.51 6.35M310.21 521.26c1.51 7.46 6.68 3.93 11.99 4.58 2.54.18 5.58 1.67 8.34 2.53 1.76.68 2.92-.75 3.95-2.03 1.91-2.37 3.91-4.61 6.78-5.87 2.15-1.28 4.76-1.2 6.49-2.69l.11-.18c2.05-29.46-45.24-25-37.67 3.66ZM304.44 509.51c.14-2.72-4.1-3.82-8.12-4.08-2.55-.15-5.01.04-6.22.36-4.01.77-7.58 2.95-10.2 5.95-2.69 3.08-4.4 7.03-4.55 11.18 0 3.58.14 8.17 2.66 10.98.6.43 1.37.48 2.1.45 2.44-.18 5.23-.3 7.67.04 2.85.28 6.04 2 9.18 2.62 1.82.18 3.01-2.29 4.4-3.79.64-1.02 1.54-1.74 2.46-2.4.94-.7 1.9-1.35 2.59-2.22l.07-.18c.25-1.13-.63-2.27-1-3.33-.48-.97-.79-1.93-1.01-2.9-.9-4.12.19-8.24 0-12.69ZM300.51 578.48c-.1.09-.18.18-.28.27-.06.05-.12.11-.18.17-.03.03-.06.04-.09.07-1.69 1.45-3.59 2.45-5.63 3.38-.52.23-1.04.46-1.59.7-.18.08-.35.15-.53.23-.07.03-.14.07-.21.1-.14.07-.28.13-.41.2-.03 0-.04.03-.07.04h-.03c-.04.02-.09.04-.14.07-.86.45-1.63 1.02-1.53 2.1.03.18.05.36.1.57.03.18.07.4.1.59 0 .04.02.08.03.11.03.18.05.36.1.55.45 2.35 1.22 5.33 2.26 7.61.02.03.03.06.04.09.26.53.52 1.04.78 1.47.31.4.73.86 1.27 1.36.04.05.1.1.14.14.49.51 1.02 1 1.59 1.46 1.14.93 2.4 1.78 3.71 2.5 1.94 1.18 4.03 2.14 5.91 2.47h.04c.1.03.18.05.28.08.92.23 1.75.17 2.47-.15.1-.02.18-.04.27-.08l.14-.13s.03-.04.04-.04c.57-.38 1.06-.94 1.39-1.69.03-.04.04-.08.06-.11 1.13-1.66 2.05-3.62 3.08-5.41.34-.54.68-1.07 1.03-1.57.56-.86 1.25-1.64 2.03-2.36.12-.11.25-.22.37-.33.09-.08.18-.14.26-.21.29-.24.58-.47.89-.7.17-.13.35-.26.53-.37.05-.04.1-.06.14-.09.6-.39 1.22-.73 1.7-1.08l.03-.03c.41-.26.77-.57.9-.95l.05-.17-.03-.12v-.06c.05-.68-.22-1.29-.51-1.91-.02-.04-.04-.09-.06-.13-.03-.05-.05-.11-.08-.17-.41-.96-.9-1.92-1.31-2.92-.23-.62-.42-1.26-.54-1.93-.34-1.79.11-4.45-.78-5.43-.03 0-.05-.04-.08-.05 0 0-.03-.02-.04-.03-.14-.15-.31-.28-.52-.4-.18-.07-.39-.15-.62-.23a.4.4 0 0 0-.09-.05c-1.22-.55-2.79-1.08-4.33-1.54-.05-.03-.11-.04-.16-.05-1.44-.48-2.91-.92-4.16-1.2-.02 0-.04-.02-.07-.03h-.08c-.17-.06-.33-.12-.49-.17-.13 0-.29-.02-.41 0-.07 0-.15-.03-.22-.04-.1.03-.19.08-.3.11-.04 0-.1 0-.14.02-.02.02-.03.02-.04.04-.7.21-1.33.68-1.93 1.25-.12.11-.24.24-.35.34-.05.06-.11.12-.16.18-.68.7-1.33 1.46-1.99 2.14-.18.18-.35.33-.53.47-.09.1-.18.18-.26.27-.05.05-.11.11-.17.15-.19.21-.4.42-.6.61Z" class="cls-1"/><path d="M249.05 492.85c8.57 1.94 12.81 11.32 22.4 4.26.56 3.08-1.2 5.21-2.23 7.65-1.03 2.42 4.53 1.23 5.64 1 2.02-.41 3.94-.97 5.7-1.87.02-.01.03-.02.04-.02.64-.32 1.25-.69 1.84-1.11.37-.22.75-.41 1.14-.58 1.68-.8 3.46-1.41 5.3-1.78.79-.18 1.82-.34 3.01-.44 4.55-4.14 5.18-10.18-.48-16.8l6.87-4.19c-.04 2.59.67 5.36 1.17 7.88.64 3.17 1.28 6.42 2.38 9.47.16.45.36 1.28.76 1.61.2.15.14.14.43.02.45-.19.89-.59 1.31-.86.68-.45 1.37-.92 2.07-1.35.22-.13.43-.26.65-.38.25-.14 1.92-.76 1.92-1.12.13-.31-1.3-5.39-1.47-6.84-.1-.94-.2-1.91-.26-2.91-.32-4.34-.27-9.04-.14-13.19.08-2.34.91-8.04 1.48-12.77 0-.02.01-.05.01-.08.19.03.37.07.55.11.01 0 .03 0 .04.01 58.92 10.61 78.35 85.78 125.21 136.18 2.65 8.14 5.43 16.73 4.83 18.13-1.02 2.32-4.38 5.5-6.22 7.39.8-13.65-14.58-18.43-24.59-11.8-2.14 1.43 1.7 2.57.59 3.16-3.56-.83-18.72 7.93-16.19 10.64.38.41 9.06 1.6 10.17 4.08-2.61 1.48-5.13 1.86-7.56 3.95-6.37 5.43-4.69 14.59-8.01 21.63 11.21-.82 19.86 9.07 28.96-3.12 1.81 3.56.47 6.82.12 10.17-.36 3.35 5.98-.18 7.26-.86 3.7-2.01 6.96-4.39 9.18-7.97l1.25 2.69c12-7.86 14.91-19.9 1.39-28.48l6.84-7.7c.97 3.41 10.64 21.5 12.71 21.76.47-2.16 5.97-6.39 6.04-7.06.03-.43-3.59-6.1-4.34-7.81-1.59-3.67-3.05-7.83-4.3-11.93 4.18 3.32 8.57 6.43 13.22 9.3 2.77-4.01 6.55-7.33 10.9-9.45-10.88-6.72-20.74-15.01-29.4-24.44-2.9-3.16-5.72-6.51-8.49-10.06-.6-.76-1.19-1.55-1.78-2.34-2.94-3.75-5.74-7.62-8.46-11.55-8.99-12.97-16.96-26.6-25.08-40.14 1.57-2.22 4.87-4.78 6.78-6.37-2.29 14.47 13.14 21.62 24.25 15.85 2.38-1.24-1.49-2.96-.27-3.47 3.6 1.38 20.28-5.99 17.95-9.22-.35-.48-9.23-2.91-10.11-5.7 2.87-1.24 5.52-1.33 8.29-3.25 7.18-4.96 6.42-14.96 10.62-22.05-11.69-.6-19.62-12.32-30.37-.49-1.52-4.05.24-7.34.97-10.88.74-3.54-6.24-.6-7.63-.03-4.05 1.66-7.7 3.77-10.37 7.3l-1.01-3.05c-13.31 6.83-17.61 19.31-4.52 30.28l-7.23 6.66c-5.11-8.45-10.33-16.83-15.96-24.95-7.23-10.41-15.39-20.49-24.81-29.08-7.26-6.62-15.48-12.19-24.36-16.4-.67-.32-1.34-.63-2.01-.92-4.75-2.12-9.66-3.56-14.59-5.18-6.54-2.16-13.17-2.67-16.94-7.85-1.99-2.49-3.19-5.76-3.19-9.34 0-6.86 3.15-10.39 6.43-12.21l2.07-28.65c-5.31 4.23-11.15 8.3-15.82 13.36-.01.01-.02.01-.02.01-1.13 1.22-2.2 2.5-3.17 3.85-15.94 22.12-9.28 39.45.3 48.92 2.61 2.6 5.43 4.6 8.08 5.96.12 7.47.91 18.28.01 19.34-1.3 1.49-4.53 3.12-6.35 4.1 3.71-10.02-6.71-17.12-15.73-14.43-1.93.57.69 2.29-.27 2.5-2.48-1.45-15.83 1.66-14.56 4.27.19.4 6.42 3.26 6.69 5.37-2.29.52-4.27.24-6.58 1.25-6.01 2.61-6.84 9.85-10.92 14.37Z" class="cls-1"/><path d="M323.53 233.29c-.48 3.11.93 5.04.77 7.65-2.94 44.53-12.38 179.29-12.67 183.35-.35 4.9 2.85 9.35 7.62 10.54 16.85 4.19 32.35 12.49 45.48 24.48 8.88 8.11 17.32 18.02 25.85 30.27.97 1.42 1.93 2.81 2.88 4.23 1.52-7.38 7.2-14.03 15.84-18.47 1.01-.52 2.11-.78 3.22-.78.47 0 .93.04 1.39.14 2.61-1.81 5.24-3.02 7.33-3.88l.09-.03c2.46-1.01 5.65-2.16 8.59-2.16 3.82 0 5.96 1.92 6.91 3.08 1.02 1.25 1.61 2.76 1.78 4.36.65-.08 1.32-.11 2-.11 4.56 0 8.62 1.7 12.2 3.21 2.96 1.24 5.76 2.42 8.5 2.56 3.26.18 6.08 2.56 6.62 6.03.25 1.66-.2 3.33-1.02 4.79-1.08 1.9-1.78 4.41-2.54 7.07-1.34 4.76-2.95 10.52-7.49 14.91.34.32.67.69.98 1.12 1.86 2.57 2.06 5.85.57 8.78-2.42 4.71-10.57 8.84-17.03 10.7-.64 1.22-1.76 2.57-3.68 3.57-3.52 1.82-7.51 2.8-11.53 2.8-1.19 0-2.36-.09-3.5-.24 3.74 6.05 7.6 12.04 11.6 17.83 2.8 4.06 5.48 7.72 8.22 11.23.02.04.53.71.53.71.42.54.83 1.1 1.25 1.64 2.65 3.38 5.38 6.62 8.12 9.63 10.11 11 21.5 19.95 33.91 26.68 6.62-.25 13 2.46 18.22 7.85 3.16-3.24 6.83-5.56 10.84-6.77 10.63-3.21 25.61 1.71 32.68 15.04 3.4.18 6.88.26 10.41.26 7.27 0 14.71-.35 22.64-1.08-2.67-12.2.52-20.6 4.06-25.78 4.14-6.03 10.48-10.32 18.47-12.58-.04-1.54.09-3.13.43-4.79 3.11-14.96 45.69-40.88 56.39-58.51 12.6-20.76 9.78-55.42 8.5-79.11-1.7-31.7-5.08-64.25-9.79-95.61-1.92-12.82-5.67-41.91-10.08-52.65-2.1-5.05-5.26-7.95-10.27-9.88-15.37-6.05-47.42-.68-58.57-11.33-16.05-15.33 8.74-40.57-17.29-52.62-29.03-13.44-109.5-12.69-143.02-11.45-19.11.7-77.51 3.06-90.86 14.55-2.66 2.29-5.01 5.13-5.56 8.77Zm269.37 86.76c7.83-.86 17.58 2.61 22.1 9.26 5.28 7.83 8.96 42.62 10.13 53.81 2.22 21.28 4.15 46.13 4.79 67.46.69 23.44 1.97 42.21-17.8 58.07-24.36 19.6-20.01-14.6-21.34-29.6-3.02-33.92-5.56-67.92-8.3-101.85-1.09-13.54-4.53-29.41-4.6-42.78-.04-7.71 7.9-13.61 15.02-14.36Zm-249.48 22.06c.69-1.38-.04-3.15 1.27-5.11 1.33-1.03 2.68-2.06 4.02-3.08 19.44-14.84 39.17-30.2 39.95-31.88 1.47-3.22-.57-9.16 3.9-13.79 4.47-4.62 10.76-5.82 13.1-9.38 2.32-3.55 6.8-13.98 9.73-14.6 2.62-.53 7.93 7.34 11.76 11.88.47.55.91 1.04 1.32 1.48 3.66 3.8 7.09-4.7 8.16-10.84.07-.33.12-.65.16-.97.86-6.14 7.39-16.4 7.7-20.51.29-4.12 1.46-8.99 4.73-8.34 3.26.65 8.91 13.88 12.47 16.2s3.36 4.79 8.45 3.1c5.08-1.7 5.7-4.56 6.88-3.64 1.16.92 27.68 23.11 31.07 27.49 3.4 4.37 8.51 13.84 11.17 16.94 2.67 3.08 5.52 3.7 6.46 7.92.51 2.28 2.85 4.71 5.72 6.95 2.22 1.78 4.75 3.45 6.99 4.85 4.4 5.95 12.74 10.87 12.74 14.74 0 3.03 4.15 58.65 6.35 87.57.11 1.52-2.07 1.83-2.4.36-4.37-19.31-11.42-48.91-14.55-53.21-4.72-6.48-38.25-28.84-41.19-31.78-2.94-2.93 1.16 2.94 0 7.08-1.19 4.12-5.29 7.65-2.94 11.18 2.35 3.51 10 6.47 6.47 11.76-3.52 5.3-11.76 12.94-15.29 16.49-3.54 3.52-8.23 6.47-11.18 11.17-2.94 4.71-7.07 5.88-12.94 7.65-5.88 1.77-18.25 1.77-23.55 1.77s-35.31 21.77-41.19 27.66c-5.87 5.88-7.06 8.24-7.64 18.83-.59 10.59-10.59-5.87-10-11.76.57-5.9-2.95-11.19.57-16.48 3.56-5.29 4.72-9.41 7.66-12.94 2.94-3.54-20.01 0-23.55 3.54-3.51 3.52-15.29 19.42-19.42 19.42-3.3 0-7.03-2.7-8.34-3.73-.3-.25-.47-.63-.44-1.02.44-7.44 4.72-80.69 5.85-82.94Z" class="cls-1"/></g></svg>