<svg xmlns="http://www.w3.org/2000/svg" id="Layer_2" data-name="Layer 2" viewBox="0 0 979.37 979.37"><defs><style>.cls-2{fill:#e5dec1}</style></defs><g id="Layer_1-2" data-name="Layer 1"><circle cx="489.68" cy="489.68" r="489.68" style="fill:#370e13"/><path d="M135.93 521.27c2.9-4.53 5.49-7.84 7.79-9.93s4.9-3.21 7.81-3.37c3.25-.18 6.06.96 8.43 3.41 2.38 2.45 3.69 5.86 3.92 10.22.15 2.69.02 5.02-.38 7s-.95 3.73-1.65 5.22a41 41 0 0 1-2 3.39c-.72 1.11-1.62 2.25-2.67 3.43l.07 1.34 29.2-1.59c.44-2.27.8-5.4 1.09-9.4q.435-6 .12-11.7c-.76-13.98-4.56-24.49-11.4-31.52-6.83-7.03-15.34-10.27-25.52-9.71q-10.23.555-18.09 6.12c-5.24 3.71-9.82 8.64-13.75 14.8l-4.32 7.14c-2.36 3.94-4.4 6.72-6.11 8.33s-3.74 2.48-6.08 2.6c-2.57.14-4.81-.8-6.72-2.83-1.9-2.03-2.96-4.89-3.16-8.58-.1-1.79-.04-3.31.17-4.55.21-1.25.46-2.38.74-3.41.48-1.48 1.08-2.84 1.8-4.05.72-1.22 1.51-2.24 2.36-3.07l-.07-1.34-30.04 1.64q1.005 2.97 1.14 5.49c.07 1.23.04 2.75-.09 4.55s-.12 3.99.02 6.56c.72 13.2 4.21 23.28 10.48 30.23q9.405 10.425 24 9.63c5.93-.32 11.19-2.04 15.79-5.15s8.87-7.69 12.8-13.74l4.32-7.14ZM98.97 456.84c-2.99-3.25-3.46-9.81-1.42-19.68l2.14-10.37 69.45 14.36q7.575 1.56 11.76 3.72c2.79 1.44 4.73 3.12 5.82 5.06l1.32.27 7.49-36.2-1.32-.27c-1.76 1.35-4.22 2.13-7.35 2.34s-7.22-.21-12.27-1.25l-69.44-14.36 2.14-10.37c1.07-5.15 2.31-9.1 3.74-11.84 1.42-2.74 3.22-4.62 5.38-5.67l.27-1.32-30.77-6.36c.05 1.96-.07 4.22-.37 6.79s-.71 5.12-1.24 7.64l-12.11 58.58c-.5 2.41-1.12 4.89-1.88 7.42-.75 2.53-1.54 4.69-2.37 6.46l30.77 6.36.27-1.32ZM109.55 330.04c3.09.53 6.95 2.06 11.57 4.58l66.11 36.01c4.53 2.47 7.87 4.86 10.05 7.2 2.17 2.33 3.47 4.64 3.89 6.91l1.18.64 33.28-61.09c1.23-2.26 2.54-4.48 3.92-6.67 1.38-2.18 2.8-4.03 4.25-5.53l-27.6-15.03-.64 1.18q1.32 3.21.33 7.83c-.66 3.09-2.25 6.94-4.77 11.56l-14.95 27.45-23.46-12.78 6.75-12.39c1.98-3.64 3.8-6.32 5.43-8.04 1.64-1.72 3.22-2.81 4.74-3.26l.64-1.18L164 293.12l-.64 1.18c.45 1.52.39 3.44-.16 5.75-.56 2.31-1.83 5.29-3.81 8.93l-6.75 12.4-14.9-8.12 14.55-26.71c4.82-8.85 9.42-13.55 13.81-14.1l.64-1.18-27.6-15.03c-.52 1.89-1.29 4.02-2.33 6.38a91 91 0 0 1-3.4 6.95l-32.88 60.35 1.18.64c2.14-.88 4.75-1.05 7.84-.51ZM171.16 231.78c2.82 1.29 6.2 3.68 10.15 7.16l56.46 49.8q5.79 5.115 8.31 9.12c1.68 2.68 2.51 5.12 2.49 7.35l1.01.89 24.56-27.85-1.01-.89c-2.2.3-4.72-.24-7.54-1.61-2.83-1.37-6.17-3.76-10.03-7.17l-56.46-49.8c-3.95-3.48-6.76-6.52-8.43-9.11s-2.5-5-2.48-7.23l-1.01-.89-24.56 27.85 1.01.89c2.2-.3 4.72.2 7.53 1.49M219.89 179.39c2.73 2.21 5.61 5.53 8.64 9.97l41.72 61.05c2.91 4.26 4.84 7.88 5.81 10.89.96 3 1.17 5.58.6 7.73l.76 1.11 30.52-20.86-.76-1.11q-3.18-.48-6.78-3.51c-2.4-2.02-5.05-5.16-7.96-9.42l-27.97-40.93 46.2 4.46 11.19 16.37c2.91 4.26 4.87 7.87 5.88 10.84s1.24 5.53.67 7.68l.76 1.11 30.66-20.95-.76-1.11c-2.21-.25-4.54-1.38-6.98-3.37-2.45-1.99-5.12-5.11-8.03-9.37l-42.48-62.16c-2.97-4.35-4.93-8-5.86-10.96-.94-2.96-1.12-5.51-.55-7.66l-.76-1.11-30.66 20.95.76 1.11c2.21.26 4.5 1.37 6.87 3.35s5.04 5.14 8.01 9.49l13.37 19.56-42.98-4.21c-6.78-.79-10.54-4.4-11.26-10.82l-.57-.83-26.5 18.11.76 1.11c2.39.13 4.96 1.3 7.68 3.5ZM350.45 146.19c4.16 3.68 9.65 6.68 16.49 8.99l7.99 2.42c5.11 1.68 8.96 3.37 11.56 5.08 2.59 1.71 4.33 3.95 5.2 6.73.98 3.1.57 6.11-1.21 9.02-1.79 2.91-4.76 5.02-8.93 6.34-2.56.81-4.86 1.27-6.88 1.38s-3.84 0-5.47-.3c-1.27-.3-2.53-.67-3.78-1.1s-2.58-1.01-3.98-1.74l-1.28.4 8.79 27.89c2.3-.14 5.43-.57 9.38-1.28q5.91-1.065 11.37-2.79c13.36-4.21 22.59-10.5 27.71-18.86s6.14-17.41 3.08-27.13c-2.05-6.52-5.53-11.85-10.42-16.01-4.89-4.15-10.81-7.37-17.75-9.65l-7.99-2.42c-4.41-1.31-7.6-2.59-9.58-3.85-1.98-1.25-3.33-3.01-4.03-5.25-.77-2.46-.42-4.86 1.08-7.21q2.235-3.525 7.53-5.19c1.71-.54 3.19-.86 4.45-.96a36 36 0 0 1 3.48-.13c1.56.1 3.02.34 4.37.74 1.36.39 2.54.9 3.56 1.52l1.28-.4-9.04-28.69c-1.75 1.14-3.43 1.96-5.04 2.47-1.18.37-2.65.72-4.43 1.04-1.78.33-3.89.88-6.35 1.65-12.61 3.97-21.5 9.86-26.68 17.66s-6.3 16.35-3.37 25.64c1.78 5.66 4.76 10.34 8.91 14.02ZM488.87 185.05c5.69 3.89 12.55 6.24 20.57 7.05 6.69.67 13.18-.03 19.46-2.1 6.29-2.07 11.91-5.39 16.88-9.96l1.92 4.41q1.815 5.415-1.74 7.26l-.13 1.34 32.94 3.31.14-1.34q-1.59-1.005-3.39-3.21t-3.63-5.94l-7.7-19.18 14.67-11.53 2.99-29.76-1.51-.15-24.73 22.51c-2.49-5.43-4.95-10.09-7.37-14-2.42-3.9-5.25-7.7-8.48-11.41 3.7-2.1 6.68-4.9 8.95-8.39 2.26-3.49 3.61-7.35 4.04-11.59.54-5.35-.35-10.25-2.66-14.71s-5.69-8.11-10.13-10.98-9.73-4.61-15.86-5.23c-6.02-.6-11.52.02-16.49 1.89-4.98 1.86-9.03 4.69-12.17 8.49s-4.97 8.31-5.5 13.55c-.4 4.01.14 7.9 1.62 11.65s3.63 6.78 6.43 9.09c-6.94 2.91-12.6 7.18-17 12.82s-6.98 12.36-7.77 20.16q-1.155 11.535 2.97 20.82c2.76 6.19 6.98 11.23 12.67 15.12Zm24.63-85.43c.45-2.21 1.57-3.89 3.38-5.06s3.76-1.54 5.85-1.1c2.21.45 3.87 1.57 4.98 3.37s1.45 3.81 1 6.01c-.46 2.32-1.56 4.06-3.31 5.24s-3.73 1.54-5.94 1.09c-2.1-.44-3.73-1.56-4.9-3.36-1.17-1.81-1.53-3.87-1.07-6.19Zm-14.09 49.42c.5-5.02 2.42-9.21 5.74-12.6 3.32-3.38 7.52-5.66 12.59-6.84 7.33 7.72 13.59 17.75 18.76 30.09q-3.81 4.35-9.81 6.87t-11.34 1.98c-5.46-.55-9.62-2.63-12.46-6.23-2.85-3.61-4.01-8.03-3.48-13.27M643.74 233.61l1.59.94 101.99-64.68c2.62-1.57 4.93-2.64 6.9-3.23 1.98-.59 3.62-.88 4.92-.88l.69-1.16-34.95-20.78-.69 1.15c.89 1.57.96 3.48.22 5.71s-2.75 4.46-6.02 6.68l-45.99 31.31 5.14-54.03q.78-6.57 2.94-9.39t5.28-3.12l.69-1.15-35.97-21.38-.69 1.15q.78 1.635 1.5 4.71.72 3.06.39 7.56l-7.96 120.58ZM704.89 265.71c-2.8 1.46-5.3 2.1-7.52 1.91l-.96.94 25.86 26.65.96-.94c-.13-2.22.61-4.69 2.19-7.39 1.59-2.71 4.23-5.86 7.93-9.45l54.03-52.42c3.78-3.67 7.03-6.23 9.74-7.7 2.71-1.46 5.18-2.1 7.4-1.91l.96-.94-25.86-26.65-.96.94c.12 2.22-.57 4.69-2.07 7.4-1.51 2.71-4.15 5.9-7.93 9.56l-54.03 52.42c-3.7 3.59-6.95 6.11-9.74 7.58M739 298.39c-3.07.73-5.66.72-7.75 0l-1.16.67 18.39 32.07 1.17-.67c.48-2.09 1.83-4.24 4.03-6.48 2.21-2.23 5.54-4.63 10.01-7.2l43-24.67-8.07 45.7-17.2 9.87c-4.47 2.56-8.23 4.23-11.27 5.01q-4.56 1.17-7.71.06l-1.17.67 18.48 32.21 1.17-.67c.43-2.18 1.73-4.42 3.91-6.7s5.5-4.7 9.97-7.27l65.3-37.46c4.57-2.62 8.36-4.28 11.38-4.98s5.58-.68 7.68.05l1.17-.67-18.48-32.21-1.17.67c-.43 2.18-1.72 4.38-3.88 6.58-2.16 2.21-5.52 4.62-10.09 7.24L826.16 322l7.58-42.51c1.32-6.7 5.21-10.16 11.68-10.38l.87-.5-15.97-27.84-1.17.67c-.32 2.38-1.68 4.84-4.09 7.38q-3.615 3.825-10.62 7.83l-64.14 36.79c-4.47 2.56-8.24 4.21-11.31 4.94ZM801.26 391.86c-5.05 1.05-9.15 1.38-12.32 1.01-3.17-.38-5.65-1.29-7.43-2.75l-1.32.27 14.1 68.12q.78 3.78 1.32 7.62c.36 2.56.47 4.88.33 6.97l30.77-6.37-.27-1.32q-3.075-1.59-5.31-5.76c-1.49-2.78-2.77-6.75-3.84-11.9l-6.34-30.61 26.16-5.42 2.86 13.82c.84 4.06 1.19 7.28 1.05 9.65s-.64 4.22-1.51 5.55l.27 1.32 29.29-6.06-.27-1.32c-1.33-.87-2.52-2.37-3.59-4.49s-2.02-5.22-2.86-9.27l-2.86-13.82 16.62-3.44 6.17 29.78c2.04 9.87 1.57 16.43-1.42 19.68l.27 1.32 30.77-6.37c-.83-1.78-1.61-3.9-2.35-6.38s-1.37-4.98-1.9-7.5l-13.93-67.3-1.32.27c-1.06 2.05-2.95 3.87-5.65 5.46s-6.63 2.92-11.79 3.98l-73.72 15.26ZM881.31 485.59c-5.93-.36-11.35.74-16.28 3.3s-9.69 6.62-14.3 12.17l-5.12 6.59q-5.1 6.255-8.88 8.97c-2.53 1.81-5.24 2.63-8.15 2.45-3.25-.2-5.91-1.65-7.98-4.36-2.08-2.71-2.98-6.24-2.72-10.6.16-2.68.56-4.99 1.18-6.91.62-1.93 1.37-3.59 2.24-5 .74-1.08 1.53-2.12 2.38-3.14s1.86-2.05 3.05-3.1l.08-1.34-29.18-1.79q-1.05 3.3-2.16 9.21-1.125 5.91-1.47 11.61c-.86 13.98 1.7 24.85 7.68 32.63 5.98 7.77 14.05 11.97 24.23 12.6 6.82.42 13.05-.91 18.68-3.99s10.75-7.45 15.37-13.12l5.12-6.59c2.8-3.65 5.15-6.17 7.03-7.57s4-2.03 6.34-1.89c2.57.16 4.69 1.35 6.35 3.59 1.66 2.23 2.38 5.2 2.15 8.89-.11 1.79-.34 3.29-.7 4.5s-.73 2.31-1.13 3.3c-.65 1.42-1.4 2.69-2.25 3.82-.86 1.13-1.75 2.05-2.69 2.78l-.08 1.34 30.02 1.84c-.44-2.05-.6-3.91-.5-5.59.08-1.23.28-2.73.61-4.51s.58-3.95.74-6.52q1.215-19.8-6.93-31.23c-5.42-7.63-13-11.74-22.73-12.33ZM171.43 702.59c-12.79 7.76-20.17 8.96-24.46 1.89-4.54-7.49-.4-14.27 15.09-23.67l11.13-6.75c15.39-9.34 23.32-9.88 27.8-2.49 4.1 6.76.1 12.6-11.94 20.19l8.07 13.31c18.32-11.54 23.8-25.96 15.29-40-9.4-15.5-26.12-17.73-47.55-4.74l-11.13 6.75c-21.53 13.06-27.27 28.92-17.81 44.52 8.64 14.25 24.11 15.82 43.58 4.3zM240.32 748.68l1.28-1.13c12.87-11.33 13.05-24.94 4.53-34.62l-17.04-19.36-64.82 57.07 10.29 11.69 24.1-21.22 3.46 3.93-16.39 29.99 10.93 12.42 17.23-32.35c7.8 3.34 17.22 1.7 26.44-6.42Zm-31.99-16.08 21.27-18.73 5.47 6.21c3.54 4.02 3.02 9.5-3.92 15.61l-1.28 1.13c-6.85 6.03-13.02 5.46-16.07 2l-5.47-6.21ZM278.85 744.77l-70.39 54.34 12.18 9.71 16.09-13.16 14.93 11.9-9.24 18.62 12.65 10.08 37.1-80.88-13.32-10.62Zm-21.25 51.05-10.75-8.57 25.51-20.88-14.77 29.45ZM321.3 789.87l22.76 12.63 6.26-11.27-36.49-20.24-41.9 75.52 13.73 7.61 17.46-31.49 20.32 11.28 6.25-11.28-20.31-11.27zM398.75 809.58l-43.27-15.92-4.54 12.33 14.39 5.29-25.3 68.73 14.62 5.37 25.29-68.72 14.27 5.25zM390.01 896.4l43.45 8.53 2.55-13.01-28.05-5.51 4.71-23.99 24.7 4.85 2.46-12.53-24.71-4.85 4.43-22.56 27.34 5.36 2.48-12.65-42.73-8.39zM481.32 821.77l-22.86-.47-1.77 86.35 22.86.47c17.64.36 30.36-8.87 30.91-36.11l.26-12.89c.56-27.24-11.65-36.98-29.41-37.35Zm13.23 37.01-.26 12.89c-.42 20.68-6.93 23.58-15.32 23.41l-6.45-.13 1.23-60.32 6.57.13c9.24.19 14.65 3.59 14.23 24.02M603.33 866.48c-1.86-7.94-7.36-14.89-14.47-16.98 3.93-4.54 5.6-11.3 3.91-18.53l-.33-1.42c-3.33-14.21-13.81-19.5-25.06-16.87l-25.58 5.99 19.68 84.09 27.24-6.37c12.32-2.88 18.44-13.56 14.97-28.37zm-43.65-38.63 7.23-1.69c4.74-1.11 8.71 1.46 10.4 8.68l.28 1.18c1.77 7.58-.94 11.46-5.44 12.52l-7.23 1.69-5.24-22.39Zm23.11 56.55-9.36 2.19-5.54-23.69 9.59-2.25c4.74-1.11 8.61 2.11 10.3 9.33l.33 1.42c1.74 7.46-.59 11.88-5.33 12.99ZM638.75 787.44 624 793.47l5.13 39.56-24.38-31.69-15.2 6.21 39.6 46.76 10.63 26.01 14.41-5.89-10.63-26.01zM703.3 744.77l-12.95 9.28 14.15 37.3-31.06-25.18-13.35 9.56 49.36 36.31 16.37 22.84 12.65-9.07-16.36-22.84zM770.06 729.71c-17.91-17.7-34.7-19.4-47.69-6.25-12.91 13.07-11 29.83 6.91 47.53l9.17 9.06c17.91 17.7 34.7 19.4 47.61 6.34 13-13.15 11.09-29.92-6.82-47.61l-9.17-9.06Zm6.66 47.44c-6.58 6.66-14.08 4.21-26.89-8.44l-9.35-9.23c-12.89-12.74-15.35-20.12-8.76-26.78 6.58-6.66 14.08-4.39 26.97 8.35l9.35 9.23c12.81 12.65 15.26 20.21 8.68 26.87M827.36 690.92l-51.16-34.45-8.56 12.71 50.86 34.24c6.16 4.14 9.88 8.85 5.4 15.51-4.55 6.76-10.41 4.58-16.17.7l-50.96-34.31-8.7 12.92 51.26 34.51c12.92 8.7 26.52 7.44 35.76-6.28s5.18-26.87-7.73-35.56Z" class="cls-2"/><circle cx="133.51" cy="609.69" r="7.63" class="cls-2" transform="rotate(-67.5 133.504 609.684)"/><circle cx="838.26" cy="609.69" r="7.63" class="cls-2"/><path d="M332.75 707.33c35.87 17.74 105.3 23.2 163.63 22.57-2.93-5.92-3.33-12.34-1.31-18.15-5.46-.69-9.59-4.89-11.87-7.2l-.12-.13c-6.91-7.53-7.77-19.56-2.02-28.06.08-.14.18-.28.28-.42-1.96 2.39-4.46 4.61-7.44 6.55a6.47 6.47 0 0 1-3.58 1.07h-.44c-2.14 1.83-4.35 3.15-6.11 4.11l-.14.07c-2.6 1.41-5.66 2.84-8.55 2.84-2.3 0-4.37-.89-5.82-2.5a7.46 7.46 0 0 1-1.62-2.94c-1.17.25-2.39.38-3.65.38-3.2 0-6.1-.79-8.92-1.55-2.42-.66-4.72-1.28-6.88-1.28-.26 0-.53 0-.79.02a6.512 6.512 0 0 1-5.87-2.82 6.55 6.55 0 0 1-.52-6.5c.81-1.71 1.22-4 1.65-6.41.75-4.15 1.65-9.14 5.03-13.36a7 7 0 0 1-.47-.45l-.07-.07c-2.08-2.24-2.59-5.45-1.32-8.38 1.81-4.18 8.35-8.53 13.99-10.84.48-1.15 1.36-2.42 2.96-3.48 3.8-2.52 8.22-3.83 12.81-3.83 3.55 0 6.96.82 9.93 2.32-.26-.83-.52-1.63-.77-2.39-15.13-16.52-27.07-35.44-38.63-53.76-20.16-31.93-37.76-59.81-66.75-68.12-.22 1.78-.4 3.37-.42 4.14-.19 5.84-.08 10.41.34 13.99.06.37.41 1.79.61 2.64.6 2.46.96 3.93.74 5.39 7.21-3.9 16.44-4.12 23.7-.29 7.18 3.78 11.15 10.85 11.08 19.57 4.06-.08 7.87.74 11.2 2.5 9.33 4.93 16.05 18.76 10.62 32.53-1.81 4.57-5.15 8.9-10.1 11.5.89 1.69 1.25 3.53 1.52 4.87.07.35.13.69.2.98l.05.2.04.2c1.13 6.75-.61 13.62-4.64 18.39l-.11.14a23.5 23.5 0 0 1-7.35 5.79c.18.21.35.44.51.68l.14.21.12.22c4.18 7.82 3.16 18.52-2.38 24.88l-.1.11c-4.9 5.75-12.77 8.86-20.59 8.16-2.84-.16-5.57-.92-8.14-2.27-7.95-4.19-12.46-12.84-12.1-21.69-1.32.29-2.7.28-4.09-.08l-.11-.03c-1.72-.33-3.54-1.01-5.43-2.01-.51-.27-1.02-.56-1.52-.86-1.32-.74-2.53-1.54-3.63-2.41-2.35 3.9-4.09 8.03-2.89 13.08.52 2.19 2.97 3.81 3.04 5.71.07 2.46-3.56 6.25-4.12 9.03-1.01 4.94.11 9.05-1.91 14.57-5.4 14.6-26.21 20.33-.92 32.84ZM599.56 673.07c-4.63.51-9.23.87-13.75 1.09 4.62 4.08 7.55 9.65 7.98 15.32l.02.17c.26 3.32-.19 6.56-1.2 9.59.29.02.58.07.87.13l.26.05.25.07c8.25 2.57 14.96 10.38 16.15 18.56 13.91-3.11 27.3-6.98 35.34-11.49-1.56-.26-3.16-.59-4.72-1.01-1.09 1.05-2.99 2.28-5.96 2.28h-.28c-12.06-.31-23.27-7.35-28.56-17.93-2.79-5.57-3.64-11.51-2.6-17.29-1.25.16-2.52.31-3.79.46Z" class="cls-2"/><path d="M666.66 697.48c-.11-.87-9.89-10.37-9.02-14.62 4.6.44 8.1 2.23 13.06 1.73 12.86-1.32 19.03-14.8 29.53-20.99-14.73-9.14-16.63-29.98-39.02-22.35.94-6.32 5.57-9.34 9.05-13.4 3.47-4.06-7.66-5.25-9.88-5.51-6.43-.76-12.67-.61-18.66 2.04l.87-4.67c-5.09-.16-9.77.42-13.86 1.69-13.69 4.23-20.67 16.16-13.64 34.31l-3.58.88c-10.96 1.16-22 1.71-33.02 1.31.68 3.15.74 6.54-.07 9.93 6.82-.07 13.65-.51 20.43-1.27 1.41-.16 2.8-.32 4.21-.51 3.61-.47 7.22-1.02 10.8-1.66-12.01 16.89 2.67 36.43 20.83 36.89 3.98.1.19-4.9 2.12-4.69 1.75 2.08 8.73 3.69 15.49 4.2 7.49.56 14.73-.25 14.36-3.32ZM481.34 675.94c.44-.53.86-1.07 1.24-1.62-.49.58-.91 1.13-1.24 1.62M550.84 680.84l-.11-.2c-6.64-11.54-21.71-11.12-29.92-1.47-9.76 12.59 1.23 32.35 17.61 29.72 14.31-1.85 19.34-16.37 12.42-28.06ZM604.95 719.16c-.74-6.42-6.13-12.63-12.53-14.62-1.9-.39-2.62 1.71-3.76 2.88-2.03 2.65-4.9 4.55-8.1 5.88-2.44 1.05-4.92 1.9-7.61 2.25-1.23.2-2.71.37-3.64 1.2-1.99 2.25-2 5.58-1.22 8.65.28 1.09.65 2.14 1.07 3.11 4.91 11.87 20.05 15.6 28.48 8.07 4.87-3.98 7.83-10.36 7.38-16.49l-.02-.24c-.02-.23-.03-.46-.07-.69ZM535.9 715.47c-.38-.56-1.12-.76-1.8-.97-4.54-1.29-9.23-1.68-12.78-4.87-2.27-1.86-3.59-3.78-5.4-5.79-.91-.99-1.97-1.95-3.37-1.97-3.52.3-6.96 3.3-9.34 6.01-5.56 6.79-4.96 15.03-1.26 21.21.15.24.3.48.46.72 7.84 11.78 25.2 9.52 31.56-1.22 2.08-3.49 2.98-7.88 2.03-12.97z" class="cls-2"/><path d="M569.09 674.24c1.86-2.04 3.11-4.22 3.83-6.42 1.13-3.41 1.03-6.91.03-10.19-.73-2.44-1.96-4.75-3.56-6.82-6.41-8.38-18.7-12.85-28.15-5.25-1.71 1.37-3.32 3.15-4.79 5.36-.07.11-.15.22-.22.34l-.12.2c-1.22 2.32-2.48 7.01-2.71 10.75-.11 1.9.04 3.55.6 4.52 1.24 1.46 3.6 1.15 5.36 1.58 3.39.48 5.92 2.1 8.73 3.82 0 0 .02 0 .02.02 1.37.87 2.71 1.89 3.85 3.08 4.02 4.56 4.63 7.64 10.05 4.49 2.96-1.66 5.29-3.51 7.06-5.48ZM580.76 676.87c-1.14-.69-2.72-1.97-4.23-2.48-.79-.28-1.56-.34-2.25-.02-.31.16-.61.39-.88.74-2.44 3.26-4.72 6.25-8.82 7.67-1.99 1.13-5.95 1.32-5.6 4.32.25 3.03.67 7.21-.14 10.48-1.99 6.66-5.31 6.47 2.54 10.72 13.12 7.49 28.27-4.13 27.14-18.22l-.02-.21c-.38-4.94-3.42-9.87-7.76-13.01ZM532.7 649.64c.11-.33.18-.68.21-1.04l-.04-.2c-5.35-6.24-11.63-7.72-17.23-6.33-4.54 1.13-8.64 4.14-11.45 8.04-2.42 3.34-3.89 7.33-3.89 11.34 0 5.42 2.68 10.86 9.33 14.8 6.05 4.08 7.21-1.81 11.26-4.94 1.82-1.55 4.85-2.57 7.28-3.83.04-.02.07-.03.11-.05 1.65-.73 1.49-2.48 1.33-4.05-.08-.78-.15-1.57-.18-2.35-.1-2.1.05-4.18.85-6.22.51-1.94 1.88-3.45 2.41-5.16ZM511.99 683.83l-.07-.17c-.6-.94-1.96-1.13-2.93-1.6-5.13-1.79-7.33-6.36-11.19-9.95-2.84-3.19-10.74 4.45-12.28 7.11-4.5 6.52-3.85 15.84 1.45 21.62 2.4 2.44 5.6 5.48 9.2 5.7.7-.11 1.26-.6 1.73-1.11 1.54-1.76 3.37-3.72 5.26-5.12 2.14-1.73 5.47-2.7 8.02-4.39 1.36-1.11.52-3.6.46-5.55-.5-2.3.58-4.47.34-6.55ZM547.36 738.75c.54.19 1.05.36 1.54.47.47.07 1.07.1 1.77.07h.19c2.05.05 4.23-.29 6.28-.86 2.12-.5 4.18-1.25 5.69-2.29 0 0 .02-.02.03-.02.07-.05.16-.09.24-.13.78-.46 1.32-1.07 1.59-1.77.05-.07.1-.16.14-.24v-.25c.14-.65.08-1.35-.19-2.09 0-.04-.02-.07-.03-.11-.33-1.8-.97-3.67-1.46-5.49-.02-.09-.05-.18-.07-.27-.13-.6-.25-1.19-.35-1.76-.2-.97-.25-1.97-.21-2.98 0-.16.02-.32.03-.48 0-.11.02-.21.03-.32.04-.35.09-.71.14-1.07.03-.2.07-.41.11-.61.02-.05.02-.1.03-.16.15-.66.34-1.31.43-1.88v-.03c.09-.46.13-.91-.03-1.26l-.07-.15s-.07-.04-.1-.07l-.03-.03c-.42-.5-1.03-.74-1.64-.96-.04-.02-.09-.02-.12-.05-.06-.02-.11-.04-.17-.06-.92-.38-1.91-.7-2.85-1.1-.58-.27-1.14-.57-1.67-.96-1.44-1-2.92-3.11-4.18-3.19-.03 0-.07 0-.1.02h-.04c-.2 0-.4 0-.61.07-.17.08-.37.16-.58.26-.03 0-.07.02-.1.03-1.21.43-2.62 1.14-4 1.86-.04.02-.09.05-.14.07-1.3.64-2.6 1.32-3.64 1.98-.02 0-.04.02-.06.03-.02.02-.05.02-.07.04-.15.07-.3.15-.43.22-.11.08-.21.19-.29.28-.06.05-.12.09-.17.13-.06.09-.08.19-.13.28-.02.04-.06.07-.08.11v.05c-.34.61-.46 1.36-.47 2.15v.7c0 .93.07 1.89.08 2.8 0 .23-.02.46-.05.67 0 .12 0 .24.02.36 0 .07 0 .15-.02.21.02.42 0 .81 0 1.2v.24c0 .03 0 .07-.02.11-.16 1.98-.71 3.81-1.4 5.66-.05.15-.11.29-.16.44-.2.5-.4 1.01-.61 1.54l-.21.51c-.02.07-.05.15-.07.21-.06.14-.11.28-.15.41 0 .02-.02.06-.02.08v.02c-.02.04-.03.08-.04.14-.29.89-.42 1.8.36 2.46.14.11.28.21.45.34.15.1.31.22.47.33.03.02.06.05.09.07.15.11.28.2.44.32 1.89 1.29 4.42 2.8 6.67 3.66.03 0 .06.02.08.03ZM347.34 590.35c1.18 2.52 3.02 4.81 5.6 6.64 11.11 8.45 24.46 1.86 27.64-10.89l.06-.22c3.27-12.47-7.4-22.43-19.63-21.35-5.44.73-9.69 3.87-12.32 8.04-3.29 5.23-4.03 12.07-1.35 17.77ZM374.95 656.35c6.06.56 12.44-1.82 16.3-6.35l.16-.18c4.23-4.87 4.9-13.19 1.72-19.12-1.05-1.56-2.97-.6-4.54-.57-3.2.44-6.48-.2-9.59-1.45-2.39-.93-4.68-2.03-6.77-3.62-.98-.7-2.12-1.59-3.33-1.65-3.92.26-6.7 4.38-8.1 8.02-4.68 11.52 3.21 24.39 14.15 24.93ZM346.6 600.11s.06-.09.09-.13l.04-.16c.04-.25.02-.49-.06-.74v-.02c-.11-.38-.33-.78-.52-1.14-2.26-3.98-5.22-7.44-5.51-12.05-.29-2.82.1-5.04.22-7.67.04-1.3-.03-2.68-.99-3.64-2.62-2.19-7.04-2.46-10.52-2.21-8.45.9-13.64 6.98-15.29 13.76-4.36 18.2 20.9 31.02 32.53 13.99Z" class="cls-2"/><path d="m390.64 555.77-.23.07c-3.64 1.15-11.02 5.96-11.83 9.09-.14 1.86 1.7 3.24 2.62 4.73 2.02 2.65 2.66 5.48 3.42 8.57.35 1.54.58 3.16.56 4.77-.33 5.88-2 8.42 3.88 9.92 33.52 9.16 32.41-44.04 1.58-37.15M400.28 618.1l.13-.16c3.1-3.65 4.36-9.13 3.5-14.24-.56-2.24-.82-6.61-3.87-6.23-3.91.59-7.51 1.1-11.3-.71-2.13-.56-5-3.12-6.79-.82-1.9 2.26-4.44 5.42-7.23 7.13-5.89 3.24-8.07.84-5.53 9.12 3.94 14.08 22.29 16.37 31.1 5.89ZM355.3 554.91c1.4 6.92 6.2 3.64 11.12 4.25 2.35.17 5.18 1.55 7.74 2.35 1.63.63 2.71-.69 3.67-1.89 1.77-2.2 3.63-4.27 6.29-5.45 1.99-1.19 4.42-1.11 6.02-2.49l.11-.16c1.9-27.34-41.97-23.2-34.95 3.4ZM349.95 544.01c.13-2.53-3.8-3.55-7.53-3.78-2.36-.14-4.65.03-5.77.33-3.72.71-7.04 2.74-9.46 5.52-2.5 2.86-4.09 6.52-4.22 10.37 0 3.32.13 7.58 2.47 10.19.56.4 1.27.44 1.95.42 2.26-.17 4.85-.28 7.12.04 2.65.26 5.61 1.86 8.52 2.43 1.69.16 2.79-2.12 4.09-3.51.6-.95 1.43-1.61 2.28-2.22.87-.65 1.76-1.25 2.4-2.06l.07-.17c.23-1.05-.59-2.11-.93-3.09-.44-.9-.74-1.79-.94-2.69-.83-3.82.18-7.65 0-11.78ZM346.29 608c-.09.08-.17.17-.26.25-.06.05-.11.11-.17.16-.02.02-.06.04-.08.07-1.57 1.35-3.33 2.27-5.22 3.14-.48.21-.96.42-1.47.65-.16.07-.33.14-.49.21-.07.02-.13.07-.2.09-.13.07-.26.12-.38.19-.02 0-.04.02-.07.04h-.02c-.04.02-.08.03-.13.07-.8.42-1.51.95-1.42 1.95.02.17.05.33.09.53.02.17.07.37.09.55 0 .03.02.07.02.11.02.17.05.33.09.51.42 2.18 1.14 4.94 2.1 7.06.02.02.02.06.04.08.24.49.48.96.73 1.36.29.37.68.8 1.18 1.26.04.05.09.09.13.13.46.47.95.92 1.47 1.36 1.05.87 2.23 1.65 3.44 2.32 1.8 1.1 3.74 1.99 5.48 2.29h.03c.09.02.17.05.26.07.85.21 1.63.16 2.3-.14.09-.02.17-.04.25-.07l.13-.12s.02-.03.04-.04c.53-.35.98-.87 1.29-1.57.02-.04.04-.07.06-.11 1.05-1.54 1.9-3.36 2.86-5.02.31-.5.63-.99.96-1.45.52-.8 1.16-1.52 1.88-2.19.11-.11.23-.2.34-.31.08-.07.16-.13.25-.2.27-.22.54-.43.83-.65.16-.12.33-.24.49-.34.05-.03.09-.06.13-.08.56-.36 1.13-.68 1.58-1.01l.02-.02c.38-.25.71-.53.83-.88l.05-.16s-.02-.07-.02-.11v-.06c.05-.63-.2-1.2-.47-1.77l-.06-.12c-.02-.05-.05-.1-.07-.16-.38-.89-.83-1.78-1.22-2.71-.21-.57-.39-1.17-.5-1.79-.31-1.66.11-4.13-.72-5.04-.02 0-.05-.04-.07-.05 0 0-.02-.02-.03-.02-.13-.14-.29-.26-.48-.37-.16-.07-.36-.14-.57-.21-.02-.02-.06-.03-.08-.05-1.14-.51-2.59-1.01-4.02-1.43-.05-.02-.1-.03-.15-.05-1.33-.44-2.7-.86-3.86-1.11-.02 0-.04-.02-.07-.02h-.07c-.16-.06-.31-.11-.46-.16-.12 0-.27-.02-.38 0-.07 0-.14-.02-.2-.03-.09.02-.18.07-.28.11-.04 0-.09 0-.13.02-.02.02-.02.02-.04.03-.65.2-1.23.63-1.79 1.16-.11.11-.22.22-.33.32-.05.06-.1.11-.15.16-.63.65-1.23 1.36-1.85 1.99-.16.16-.33.31-.49.43-.08.09-.16.17-.24.25-.05.05-.1.1-.16.14-.18.2-.37.39-.56.56Z" class="cls-2"/><path d="M298.55 528.55c7.96 1.8 11.89 10.5 20.78 3.95.52 2.86-1.11 4.84-2.07 7.1-.96 2.24 4.21 1.14 5.24.93 1.87-.38 3.66-.9 5.29-1.73.02-.01.03-.02.04-.02.59-.3 1.16-.64 1.71-1.03.35-.2.69-.38 1.06-.54 1.56-.74 3.21-1.3 4.92-1.65.73-.16 1.69-.32 2.79-.41 4.22-3.84 4.81-9.44-.45-15.59l6.38-3.89c-.04 2.4.62 4.97 1.09 7.31.59 2.94 1.19 5.96 2.21 8.79.15.42.34 1.19.7 1.5.18.14.13.13.4.02.42-.17.83-.55 1.21-.79.63-.42 1.27-.86 1.93-1.25l.6-.36c.23-.13 1.78-.7 1.78-1.04.12-.29-1.2-5-1.36-6.35-.09-.88-.18-1.77-.24-2.7-.3-4.02-.25-8.38-.13-12.23.07-2.17.85-7.46 1.38-11.85 0-.02.01-.05.01-.07.17.03.35.06.51.1.01 0 .03 0 .04.01 54.67 9.84 72.7 79.59 116.18 126.36 2.46 7.55 5.04 15.52 4.48 16.82-.95 2.15-4.06 5.1-5.78 6.86.74-12.66-13.53-17.1-22.82-10.95-1.99 1.32 1.58 2.38.55 2.93-3.3-.77-17.37 7.35-15.03 9.87.36.38 8.4 1.49 9.43 3.79-2.42 1.38-4.76 1.72-7.02 3.67-5.91 5.04-4.35 13.54-7.44 20.07 10.4-.76 18.43 8.41 26.87-2.89 1.68 3.3.44 6.33.11 9.43-.34 3.11 5.55-.16 6.73-.79 3.43-1.86 6.46-4.07 8.52-7.4l1.16 2.5c11.13-7.29 13.83-18.47 1.29-26.42l6.35-7.14c.9 3.17 9.87 19.95 11.8 20.19.44-2.01 5.54-5.93 5.6-6.55.03-.4-3.33-5.66-4.02-7.24-1.48-3.4-2.83-7.26-3.99-11.07 3.88 3.08 7.96 5.97 12.26 8.63 2.57-3.72 6.08-6.8 10.12-8.77-10.1-6.23-19.24-13.93-27.28-22.68-2.69-2.93-5.31-6.04-7.87-9.33-.56-.7-1.1-1.44-1.65-2.17-2.73-3.48-5.33-7.07-7.85-10.72-8.34-12.03-15.74-24.68-23.27-37.24 1.46-2.06 4.52-4.43 6.3-5.91-2.13 13.43 12.19 20.06 22.5 14.71 2.21-1.15-1.39-2.75-.25-3.22 3.34 1.28 18.82-5.56 16.66-8.56-.33-.45-8.57-2.7-9.38-5.29 2.66-1.15 5.12-1.23 7.69-3.02 6.66-4.6 5.96-13.88 9.85-20.46-10.85-.56-18.2-11.43-28.18-.46-1.41-3.76.22-6.82.9-10.1s-5.79-.56-7.08-.03c-3.76 1.54-7.14 3.49-9.63 6.77l-.94-2.83c-12.35 6.34-16.34 17.92-4.2 28.1l-6.71 6.18c-4.74-7.84-9.59-15.62-14.81-23.15-6.71-9.66-14.28-19.01-23.02-26.99-6.73-6.14-14.36-11.31-22.6-15.22-.62-.3-1.24-.58-1.86-.86-4.41-1.97-8.96-3.3-13.54-4.81-6.07-2.01-12.22-2.48-15.72-7.28-1.84-2.31-2.96-5.35-2.96-8.67 0-6.37 2.92-9.64 5.97-11.33l1.93-26.59c-4.93 3.92-10.35 7.7-14.68 12.4-.01.01-.02.01-.02.01a36 36 0 0 0-2.94 3.58c-14.79 20.53-8.61 36.6.28 45.39 2.42 2.41 5.04 4.27 7.5 5.53.11 6.93.85 16.96.01 17.95-1.2 1.39-4.21 2.89-5.89 3.8 3.44-9.3-6.22-15.88-14.6-13.39-1.79.53.64 2.13-.25 2.32-2.3-1.34-14.69 1.54-13.51 3.96.17.37 5.96 3.03 6.2 4.98-2.13.48-3.96.22-6.1 1.16-5.57 2.42-6.35 9.14-10.14 13.33Z" class="cls-2"/><path d="M367.66 287.71c-.45 2.88.87 4.68.71 7.1-2.73 41.32-11.49 166.36-11.76 170.13-.33 4.54 2.65 8.68 7.07 9.78 15.64 3.89 30.02 11.59 42.2 22.72 8.24 7.53 16.07 16.72 23.99 28.09.9 1.31 1.79 2.61 2.67 3.92 1.41-6.85 6.68-13.02 14.7-17.13a6.55 6.55 0 0 1 4.27-.59c2.42-1.68 4.86-2.8 6.8-3.6l.08-.03c2.28-.94 5.25-2.01 7.97-2.01 3.55 0 5.53 1.78 6.41 2.86.95 1.16 1.5 2.56 1.65 4.04.6-.07 1.22-.1 1.85-.1 4.23 0 8 1.58 11.32 2.97 2.75 1.15 5.35 2.24 7.88 2.37 3.03.16 5.64 2.37 6.14 5.59.23 1.54-.18 3.09-.95 4.44-1 1.76-1.65 4.1-2.35 6.56-1.24 4.42-2.74 9.76-6.95 13.83.32.3.62.64.91 1.04 1.72 2.38 1.92 5.43.53 8.15-2.24 4.37-9.81 8.2-15.8 9.93-.59 1.13-1.63 2.38-3.41 3.31-3.27 1.69-6.97 2.6-10.7 2.6-1.1 0-2.19-.08-3.25-.22 3.47 5.61 7.05 11.17 10.77 16.54 2.6 3.77 5.08 7.16 7.63 10.42.02.04.49.66.49.66.39.5.77 1.02 1.16 1.52 2.46 3.14 4.99 6.14 7.54 8.93 9.38 10.21 19.95 18.51 31.47 24.75 6.14-.23 12.06 2.28 16.91 7.28 2.93-3.01 6.34-5.15 10.05-6.29 9.86-2.97 23.77 1.59 30.33 13.96 3.16.16 6.39.24 9.66.24 6.74 0 13.65-.33 21.01-1-2.48-11.32.48-19.11 3.77-23.92 3.84-5.59 9.73-9.58 17.13-11.67-.04-1.43.08-2.9.4-4.44 2.88-13.88 42.4-37.94 52.32-54.29 11.69-19.26 9.08-51.42 7.88-73.41-1.58-29.41-4.72-59.61-9.09-88.72-1.78-11.9-5.26-38.88-9.35-48.86-1.95-4.69-4.88-7.38-9.52-9.17-14.26-5.61-44-.63-54.35-10.51-14.89-14.22 8.11-37.64-16.04-48.83-26.93-12.47-101.6-11.78-132.7-10.62-17.74.65-71.92 2.84-84.31 13.5-2.47 2.13-4.65 4.76-5.15 8.14Zm249.94 80.5c7.26-.79 16.31 2.42 20.51 8.59 4.9 7.26 8.31 39.55 9.4 49.93 2.06 19.74 3.85 42.81 4.44 62.6.64 21.75 1.82 39.17-16.51 53.88-22.6 18.18-18.57-13.55-19.8-27.46-2.8-31.48-5.15-63.03-7.7-94.5-1.01-12.56-4.21-27.29-4.27-39.7-.04-7.15 7.33-12.63 13.94-13.32Zm-231.48 20.47c.64-1.28-.04-2.92 1.18-4.74 1.23-.96 2.49-1.92 3.73-2.86 18.04-13.77 36.35-28.02 37.07-29.58 1.37-2.98-.53-8.5 3.62-12.79s9.98-5.4 12.15-8.7c2.15-3.29 6.31-12.97 9.03-13.55 2.43-.49 7.35 6.82 10.91 11.02.44.51.85.97 1.22 1.38 3.39 3.52 6.58-4.36 7.57-10.05.06-.31.11-.6.15-.9.79-5.69 6.86-15.22 7.14-19.03.26-3.82 1.35-8.34 4.39-7.74 3.03.6 8.27 12.88 11.57 15.04 3.3 2.15 3.12 4.44 7.84 2.87 4.72-1.58 5.29-4.23 6.39-3.38 1.08.86 25.68 21.44 28.83 25.51 3.16 4.05 7.89 12.85 10.36 15.72 2.48 2.86 5.12 3.43 5.99 7.34.47 2.12 2.65 4.37 5.31 6.45 2.06 1.65 4.41 3.2 6.49 4.5 4.08 5.52 11.82 10.09 11.82 13.68 0 2.81 3.85 54.42 5.89 81.25.1 1.41-1.93 1.7-2.23.34-4.05-17.92-10.59-45.38-13.5-49.38-4.38-6.01-35.49-26.76-38.22-29.49-2.73-2.72 1.08 2.73 0 6.57-1.1 3.82-4.91 7.1-2.73 10.37 2.18 3.26 9.28 6 6 10.91-3.27 4.92-10.91 12.01-14.19 15.3-3.28 3.27-7.64 6-10.37 10.36-2.73 4.37-6.56 5.46-12.01 7.1-5.46 1.64-16.93 1.64-21.85 1.64s-32.76 20.2-38.22 25.66c-5.45 5.46-6.55 7.65-7.09 17.47-.55 9.83-9.83-5.45-9.28-10.91.53-5.47-2.74-10.38.53-15.29 3.3-4.91 4.38-8.73 7.11-12.01s-18.57 0-21.85 3.28c-3.26 3.27-14.19 18.02-18.02 18.02-3.07 0-6.52-2.51-7.74-3.46-.28-.23-.44-.58-.41-.95.41-6.91 4.38-74.87 5.43-76.96Z" class="cls-2"/></g></svg>